<svg width="75" height="74" viewBox="0 0 75 74" fill="none" xmlns="http://www.w3.org/2000/svg">
<path d="M56.9282 18.746V17.0852C56.9282 12.5762 54.7958 8.34124 51.1867 5.67155C53.0222 8.12119 54.0121 11.1064 54.008 14.1747V18.746H51.0795V14.1747C51.0836 6.34831 44.777 0 37.0021 0C29.2272 0 22.9165 6.34831 22.9165 14.1747V18.746H0V68.5983C0 71.5794 2.40054 74 5.36615 74H68.638C71.5995 74 74.0042 71.5836 74.0042 68.5983V18.746H56.9282ZM25.8367 14.1747C25.8326 7.97172 30.8275 2.93957 36.9938 2.93957C36.998 2.93957 36.998 2.93957 37.0021 2.93957C43.1107 3.07243 48.0314 8.0257 48.1675 14.1789V18.7502H31.6813V17.0894C31.6772 10.8864 36.6721 5.85423 42.8384 5.85008C42.8426 5.85008 42.8426 5.85008 42.8467 5.85008C43.3623 5.85008 43.8737 5.88745 44.3811 5.96634C42.9828 5.31863 41.4649 4.98233 39.9265 4.97817C36.3174 4.97402 32.927 6.73444 30.8358 9.69478C29.4788 11.9202 28.7611 14.4778 28.7652 17.0852V18.746H25.8367V14.1747Z" fill="#E8E8E8"/>
<path d="M35.8058 30.7451H21.4851V45.1648H35.8058V30.7451Z" fill="#F25022"/>
<path d="M52.5148 30.7451H38.1941V45.1648H52.5148V30.7451Z" fill="#7FBA00"/>
<path d="M35.8058 47.5645H21.4851V61.98H35.8058V47.5645Z" fill="#00A4EF"/>
<path d="M52.5148 47.5645H38.1941V61.98H52.5148V47.5645Z" fill="#FFB900"/>
</svg>
