<svg width="74" height="74" viewBox="0 0 74 74" fill="none" xmlns="http://www.w3.org/2000/svg">
<path d="M56.1328 0L42.7324 22.334H60.5996V1.1167C60.5996 0.499984 60.0996 0 59.4829 0H56.1328Z" fill="#3A6FD8"/>
<path d="M13.4004 1.1167V22.334H56.1328V0H14.5171C13.9004 0 13.4004 0.499984 13.4004 1.1167Z" fill="#3B88F5"/>
<path d="M60.5996 8.93359L47.1992 29.0342H65.0664V10.0503C65.0664 9.43358 64.5664 8.93359 63.9497 8.93359H60.5996Z" fill="#3B88F5"/>
<path d="M8.93359 10.0503V29.0342H60.5996V8.93359H10.0503C9.43358 8.93359 8.93359 9.43358 8.93359 10.0503Z" fill="#28ABFA"/>
<path d="M65.0664 17.8672L51.666 35.7344H69.5332V18.9839C69.5332 18.3672 69.0332 17.8672 68.4165 17.8672H65.0664Z" fill="#28ABFA"/>
<path d="M4.4668 18.9839V35.7344H65.0664V17.8672H5.5835C4.96678 17.8672 4.4668 18.3672 4.4668 18.9839Z" fill="#14CFFF"/>
<path d="M69.5331 26.8008L56.8772 50.4004L69.5331 74H72.8832C73.4999 74 73.9999 73.5 73.9999 72.8833V27.9175C73.9999 27.3008 73.4999 26.8008 72.8832 26.8008H69.5331Z" fill="#8AE7FF"/>
<path d="M0 27.9175V72.8833C0 73.5 0.499984 74 1.1167 74H69.5332V26.8008H1.1167C0.499984 26.8008 0 27.3008 0 27.9175Z" fill="#C4F3FF"/>
</svg>
