<svg width="74" height="60" viewBox="0 0 74 60" fill="none" xmlns="http://www.w3.org/2000/svg">
<path d="M40.5807 58.8001H33.4194V50.4L35.9402 49.4719H39.168L40.5807 50.4V58.8001Z" fill="#DAD8DB"/>
<path d="M33.4194 45.5999H40.5807V50.3998H33.4194V45.5999Z" fill="#C8C5C9"/>
<path d="M70.4195 0H3.58059C3.16217 0 2.76052 0.0722203 2.38734 0.204745L1.20435 3.60011V43.4985C1.20435 45.4867 2.80749 47.0985 4.78497 47.0985H70.4194L73.7962 45.6002C73.9281 45.2248 74 44.8208 74 44.4V3.60011C74.0001 1.6118 72.397 0 70.4195 0Z" fill="#6D80D6"/>
<path d="M70.4195 45.5999L2.38708 3.60005V0.204102C0.99958 0.700052 0 2.03475 0 3.60005V44.4C0 46.3881 1.60314 47.9999 3.58063 47.9999H70.4195C71.9763 47.9999 73.3029 46.9949 73.7961 45.5999H70.4195Z" fill="#5169CE"/>
<path d="M71.6132 8.40009L26.4117 32.6901L2.38721 32.4V3.60013C2.38721 2.93737 2.92154 2.40015 3.58075 2.40015H70.4197C71.0789 2.40015 71.6132 2.93737 71.6132 3.60013V8.40009Z" fill="#C8EFFE"/>
<path d="M2.38721 32.3998L21.1056 26.7623C23.6094 26.0083 26.29 26.1013 28.7359 27.0271L29.9443 27.4845C32.072 28.2898 34.4699 27.8097 36.1285 26.2464L49.6849 13.4687C51.525 11.7341 53.8646 10.6303 56.3676 10.3158L71.6131 8.3999V11.7229L42.9679 43.1999L2.38721 41.0998V32.3998Z" fill="#A5B4D0"/>
<path d="M61.2337 15.7367C59.4338 16.4326 57.8535 17.6029 56.6587 19.1246L40.5808 39.6L34.6131 40.8L22.9048 36.2725C20.4516 35.3239 17.7378 35.3124 15.2768 36.2402L2.38721 41.1001V44.4001C2.38721 45.0627 2.92154 45.6001 3.58075 45.6001H17.1872L61.9079 40.511L71.6133 20.2501V11.7231L61.2337 15.7367Z" fill="#5169CE"/>
<path d="M51.3227 60.0001H22.6774C22.0176 60.0001 21.4839 59.4633 21.4839 58.8001C21.4839 58.1369 22.0178 57.6001 22.6774 57.6001H51.3227C51.9825 57.6001 52.5163 58.1369 52.5163 58.8001C52.5163 59.4633 51.9824 60.0001 51.3227 60.0001Z" fill="#ECEAEC"/>
<path d="M10.6009 21.4758C9.94115 21.4758 9.4074 20.939 9.4074 20.2758V10.9132H8.35492C7.69513 10.9132 7.16138 10.3758 7.16138 9.71317C7.16138 9.05055 7.69528 8.51318 8.35492 8.51318H10.6009C11.2607 8.51318 11.7945 9.05055 11.7945 9.71317V20.2759C11.7945 20.939 11.2606 21.4758 10.6009 21.4758Z" fill="#0079F6"/>
<path d="M43.6766 21.4758C43.6732 21.4758 43.6697 21.4758 43.6661 21.4758C43.0076 21.4699 42.4772 20.9285 42.4831 20.2652C42.4877 19.6804 42.4936 19.0335 42.4983 18.3585H38.4468C38.0249 18.3585 37.6332 18.1347 37.4187 17.7691C37.2042 17.4035 37.1973 16.9512 37.4012 16.5784C38.2334 15.0633 40.9936 10.061 41.5903 9.32344C42.1417 8.64192 42.8934 8.36307 43.6032 8.58685C44.3165 8.80889 44.8223 9.49912 44.8923 10.3453C44.9238 10.7215 44.9167 13.4273 44.9017 15.9585H45.0439C45.7037 15.9585 46.2375 16.4953 46.2375 17.1585C46.2375 17.8217 45.7036 18.3585 45.0439 18.3585H44.8854C44.8796 19.2257 44.8737 19.9253 44.8702 20.2862C44.8643 20.9449 44.3317 21.4758 43.6766 21.4758ZM40.4747 15.9585H42.5145C42.5214 14.6179 42.5273 13.3253 42.5273 12.3358C41.9667 13.2979 41.23 14.6009 40.4747 15.9585Z" fill="#0079F6"/>
<path d="M17.402 21.5814C15.3716 21.5814 15.2177 21.5298 15.0592 21.477C14.6921 21.3551 14.3632 21.0258 14.2502 20.6544C14.0463 19.9899 14.3469 19.5939 15.0055 18.7255C15.5394 18.0235 16.5325 16.7169 18.1958 14.3263C18.6749 13.6379 18.9838 13.0255 19.1154 12.5041L19.1481 12.2481C19.1143 11.4489 18.457 10.8096 17.655 10.8096C16.9417 10.8096 16.325 11.3188 16.1887 12.0197C16.0616 12.6689 15.4299 13.0931 14.7876 12.9665C14.1407 12.8388 13.7188 12.2083 13.8458 11.5579C14.2025 9.7339 15.8039 8.40967 17.655 8.40967C19.7949 8.40967 21.5363 10.1604 21.5363 12.3126C21.5363 12.363 21.5329 12.4129 21.527 12.4632L21.4756 12.8715C21.471 12.9119 21.4628 12.9523 21.4535 12.9922C21.2612 13.826 20.8229 14.7377 20.1516 15.7022C19.0536 17.2795 18.2423 18.3939 17.6584 19.1779C18.5898 19.1767 19.7134 19.1673 20.7728 19.1545C21.4885 19.124 21.9733 19.6772 21.9815 20.3392C21.9896 21.0026 21.4616 21.5462 20.8031 21.5545C19.2996 21.5731 18.204 21.5814 17.402 21.5814Z" fill="#0079F6"/>
<path d="M31.8808 21.6004C29.9541 21.6004 28.3014 20.1554 28.0367 18.2394C28.0123 18.0648 27.9983 17.8831 27.9983 17.698C27.9983 17.0347 28.5322 16.498 29.1918 16.498C29.8516 16.498 30.3854 17.0348 30.3854 17.698C30.3854 17.7683 30.39 17.8375 30.4006 17.9042C30.5032 18.6449 31.1384 19.2002 31.8808 19.2002C32.705 19.2002 33.3752 18.5264 33.3752 17.6979C33.3752 16.8693 32.705 16.1943 31.8808 16.1943C31.2211 16.1943 30.6873 15.6575 30.6873 14.9943C30.6873 14.3317 31.2212 13.7943 31.8808 13.7943C32.705 13.7943 33.3752 13.1199 33.3752 12.2914C33.3752 11.4628 32.705 10.7884 31.8808 10.7884C31.1676 10.7884 30.5509 11.2976 30.4146 11.999C30.2875 12.6483 29.6592 13.073 29.0135 12.9453C28.3666 12.8175 27.9447 12.1865 28.0717 11.536C28.4284 9.71208 30.0298 8.38843 31.8808 8.38843C34.0208 8.38843 35.7622 10.1392 35.7622 12.2914C35.7622 13.3397 35.3496 14.2923 34.6783 14.9943C35.3496 15.6963 35.7622 16.649 35.7622 17.6979C35.7621 19.8495 34.0208 21.6004 31.8808 21.6004Z" fill="#0079F6"/>
<path d="M24.9096 14.3197C24.2498 14.3197 23.7114 13.7823 23.7114 13.1197C23.7114 12.457 24.2417 11.9197 24.9015 11.9197H24.9096C25.5694 11.9197 26.1031 12.457 26.1031 13.1197C26.1031 13.7823 25.5692 14.3197 24.9096 14.3197Z" fill="#0079F6"/>
<path d="M24.9096 17.4364H24.9015C24.2418 17.4364 23.708 16.8996 23.708 16.2364C23.708 15.5737 24.2419 15.0364 24.9015 15.0364C25.5613 15.0364 26.0986 15.5737 26.0986 16.2364C26.0986 16.8997 25.5693 17.4364 24.9096 17.4364Z" fill="#0079F6"/>
<path d="M70.4194 45.5998C71.0786 45.5998 71.613 45.0624 71.613 44.3998V20.2498L58.0929 32.9932C56.0949 34.8765 53.306 35.6556 50.6281 35.0786L41.5024 33.1125C39.3803 32.6554 37.1643 33.0464 35.3238 34.2029L17.187 45.5996H70.4194V45.5998Z" fill="#6D80D6"/>
</svg>
