<svg width="60" height="74" viewBox="0 0 60 74" fill="none" xmlns="http://www.w3.org/2000/svg">
<path d="M29.997 0C21.6821 0 14.918 6.74272 14.918 15.0312V34.6875C14.918 42.976 21.6821 49.7187 29.997 49.7187C38.3113 49.7187 45.076 42.976 45.076 34.6875V15.0312C45.076 6.74272 38.3113 0 29.997 0Z" fill="#EFEDEE"/>
<path d="M34.6367 47.406C26.3218 47.406 19.5577 40.6633 19.5577 32.3747V12.7185C19.5577 7.7655 21.9738 3.36464 25.6926 0.624756C19.4688 2.476 14.918 8.23296 14.918 15.031V34.6872C14.918 42.9758 21.6821 49.7185 29.997 49.7185C33.3426 49.7185 36.4372 48.626 38.9411 46.781C37.5762 47.1869 36.1319 47.406 34.6367 47.406Z" fill="#CFC9CC"/>
<path d="M14.918 33.5312V34.6875C14.918 42.976 21.6821 49.7187 29.997 49.7187C38.3113 49.7187 45.076 42.976 45.076 34.6875V33.5312H14.918Z" fill="#F7AC9F"/>
<path d="M34.6367 47.4062C26.7121 47.4062 20.196 41.2812 19.6019 33.5312H14.918V34.6875C14.918 42.976 21.6821 49.7187 29.997 49.7187C33.3426 49.7187 36.4372 48.6263 38.9411 46.7813C37.5762 47.1872 36.1319 47.4062 34.6367 47.4062Z" fill="#F2755F"/>
<path d="M47.396 34.6152H11.4383C10.8373 34.6152 10.3508 34.1303 10.3508 33.5312C10.3508 32.9322 10.8373 32.4473 11.4383 32.4473H47.396C47.9963 32.4473 48.4834 32.9322 48.4834 33.5312C48.4834 34.1303 47.9963 34.6152 47.396 34.6152Z" fill="#F7E786"/>
<path d="M49.7161 30.6406C48.4367 30.6406 47.3962 31.6783 47.3962 32.9531V35.2656C47.3962 44.829 39.5911 52.6094 29.9973 52.6094C20.4036 52.6094 12.5984 44.829 12.5984 35.2656V32.9531C12.5984 31.6783 11.5575 30.6406 10.2786 30.6406C8.99916 30.6406 7.95874 31.6783 7.95874 32.9531V35.2656C7.95874 40.8137 10.0475 46.1145 13.8394 50.1907C17.4885 54.1134 22.3853 56.558 27.6775 57.1124V74H32.3172V57.1124C37.6094 56.558 42.5056 54.1128 46.1547 50.1907C49.9472 46.1145 52.0359 40.8137 52.0359 35.2656V32.9531C52.0359 31.6783 50.9955 30.6406 49.7161 30.6406Z" fill="#7E6F78"/>
<path d="M31.0845 10.1895C31.0845 10.7879 30.5975 11.2734 29.9971 11.2734C29.3962 11.2734 28.9097 10.7879 28.9097 10.1895C28.9097 9.591 29.3962 9.10547 29.9971 9.10547C30.5975 9.10547 31.0845 9.591 31.0845 10.1895Z" fill="#7E6F78"/>
<path d="M37.9717 10.1895C37.9717 10.7879 37.4847 11.2734 36.8843 11.2734C36.2834 11.2734 35.7969 10.7879 35.7969 10.1895C35.7969 9.591 36.2834 9.10547 36.8843 9.10547C37.4847 9.10547 37.9717 9.591 37.9717 10.1895Z" fill="#7E6F78"/>
<path d="M34.492 5.70898C34.492 6.30743 34.0049 6.79297 33.4046 6.79297C32.8037 6.79297 32.3171 6.30743 32.3171 5.70898C32.3171 5.11053 32.8037 4.625 33.4046 4.625C34.0049 4.625 34.492 5.11053 34.492 5.70898Z" fill="#7E6F78"/>
<path d="M27.6775 5.70898C27.6775 6.30743 27.1905 6.79297 26.5901 6.79297C25.9892 6.79297 25.5027 6.30743 25.5027 5.70898C25.5027 5.11053 25.9892 4.625 26.5901 4.625C27.1905 4.625 27.6775 5.11053 27.6775 5.70898Z" fill="#7E6F78"/>
<path d="M34.492 14.8145C34.492 15.4129 34.0049 15.8984 33.4046 15.8984C32.8037 15.8984 32.3171 15.4129 32.3171 14.8145C32.3171 14.216 32.8037 13.7305 33.4046 13.7305C34.0049 13.7305 34.492 14.216 34.492 14.8145Z" fill="#7E6F78"/>
<path d="M41.4515 14.8145C41.4515 15.4129 40.9644 15.8984 40.364 15.8984C39.7631 15.8984 39.2766 15.4129 39.2766 14.8145C39.2766 14.216 39.7631 13.7305 40.364 13.7305C40.9644 13.7305 41.4515 14.216 41.4515 14.8145Z" fill="#7E6F78"/>
<path d="M20.7178 14.8145C20.7178 15.4129 20.2308 15.8984 19.6304 15.8984C19.0295 15.8984 18.543 15.4129 18.543 14.8145C18.543 14.216 19.0295 13.7305 19.6304 13.7305C20.2308 13.7305 20.7178 14.216 20.7178 14.8145Z" fill="#7E6F78"/>
<path d="M41.4515 24.209C41.4515 24.8074 40.9644 25.293 40.364 25.293C39.7631 25.293 39.2766 24.8074 39.2766 24.209C39.2766 23.6105 39.7631 23.125 40.364 23.125C40.9644 23.125 41.4515 23.6105 41.4515 24.209Z" fill="#7E6F78"/>
<path d="M20.7178 24.209C20.7178 24.8074 20.2308 25.293 19.6304 25.293C19.0295 25.293 18.543 24.8074 18.543 24.209C18.543 23.6105 19.0295 23.125 19.6304 23.125C20.2308 23.125 20.7178 23.6105 20.7178 24.209Z" fill="#7E6F78"/>
<path d="M27.6775 14.8145C27.6775 15.4129 27.1905 15.8984 26.5901 15.8984C25.9892 15.8984 25.5027 15.4129 25.5027 14.8145C25.5027 14.216 25.9892 13.7305 26.5901 13.7305C27.1905 13.7305 27.6775 14.216 27.6775 14.8145Z" fill="#7E6F78"/>
<path d="M34.492 23.9199C34.492 24.5184 34.0049 25.0039 33.4046 25.0039C32.8037 25.0039 32.3171 24.5184 32.3171 23.9199C32.3171 23.3215 32.8037 22.8359 33.4046 22.8359C34.0049 22.8359 34.492 23.3215 34.492 23.9199Z" fill="#7E6F78"/>
<path d="M27.6775 23.9199C27.6775 24.5184 27.1905 25.0039 26.5901 25.0039C25.9892 25.0039 25.5027 24.5184 25.5027 23.9199C25.5027 23.3215 25.9892 22.8359 26.5901 22.8359C27.1905 22.8359 27.6775 23.3215 27.6775 23.9199Z" fill="#7E6F78"/>
<path d="M24.1976 10.2617C24.1976 10.8602 23.7105 11.3457 23.1101 11.3457C22.5092 11.3457 22.0227 10.8602 22.0227 10.2617C22.0227 9.66327 22.5092 9.17773 23.1101 9.17773C23.7105 9.17773 24.1976 9.66327 24.1976 10.2617Z" fill="#7E6F78"/>
<path d="M31.0845 19.5117C31.0845 20.1102 30.5975 20.5957 29.9971 20.5957C29.3962 20.5957 28.9097 20.1102 28.9097 19.5117C28.9097 18.9133 29.3962 18.4277 29.9971 18.4277C30.5975 18.4277 31.0845 18.9133 31.0845 19.5117Z" fill="#7E6F78"/>
<path d="M37.9717 19.5117C37.9717 20.1102 37.4847 20.5957 36.8843 20.5957C36.2834 20.5957 35.7969 20.1102 35.7969 19.5117C35.7969 18.9133 36.2834 18.4277 36.8843 18.4277C37.4847 18.4277 37.9717 18.9133 37.9717 19.5117Z" fill="#7E6F78"/>
<path d="M24.1976 19.584C24.1976 20.1824 23.7105 20.668 23.1101 20.668C22.5092 20.668 22.0227 20.1824 22.0227 19.584C22.0227 18.9855 22.5092 18.5 23.1101 18.5C23.7105 18.5 24.1976 18.9855 24.1976 19.584Z" fill="#7E6F78"/>
<path d="M31.0845 28.834C31.0845 29.4324 30.5975 29.918 29.9971 29.918C29.3962 29.918 28.9097 29.4324 28.9097 28.834C28.9097 28.2355 29.3962 27.75 29.9971 27.75C30.5975 27.75 31.0845 28.2355 31.0845 28.834Z" fill="#7E6F78"/>
<path d="M37.9717 28.834C37.9717 29.4324 37.4847 29.918 36.8843 29.918C36.2834 29.918 35.7969 29.4324 35.7969 28.834C35.7969 28.2355 36.2834 27.75 36.8843 27.75C37.4847 27.75 37.9717 28.2355 37.9717 28.834Z" fill="#7E6F78"/>
<path d="M24.1976 28.9062C24.1976 29.5047 23.7105 29.9902 23.1101 29.9902C22.5092 29.9902 22.0227 29.5047 22.0227 28.9062C22.0227 28.3078 22.5092 27.8223 23.1101 27.8223C23.7105 27.8223 24.1976 28.3078 24.1976 28.9062Z" fill="#7E6F78"/>
<path d="M7.75961 17.5522C7.48095 17.5522 7.20286 17.4467 6.99047 17.235C3.85278 14.1072 3.85278 9.01814 6.99047 5.89039C7.41525 5.46753 8.10396 5.46753 8.52817 5.89039C8.95295 6.31382 8.95295 7.00035 8.52817 7.42378C6.2389 9.70579 6.2389 13.4196 8.52817 15.7016C8.95295 16.125 8.95295 16.8115 8.52817 17.2344C8.31578 17.4467 8.03769 17.5522 7.75961 17.5522Z" fill="#7FDC92"/>
<path d="M4.47871 20.8222C4.20063 20.8222 3.92197 20.7166 3.70958 20.5049C-1.23653 15.5745 -1.23653 7.55074 3.70958 2.62031C4.13436 2.19688 4.82307 2.19688 5.24728 2.62031C5.67206 3.04374 5.67206 3.7297 5.24728 4.15313C1.14902 8.23896 1.14902 14.8863 5.24728 18.9721C5.67206 19.3955 5.67206 20.0815 5.24728 20.5049C5.03546 20.7166 4.7568 20.8222 4.47871 20.8222Z" fill="#7FDC92"/>
<path d="M11.0402 14.2818C10.7621 14.2818 10.4834 14.1762 10.2716 13.9645C9.62766 13.3231 9.27368 12.4701 9.27368 11.5628C9.27368 10.6555 9.62766 9.80244 10.2716 9.16108C10.6958 8.73765 11.3845 8.73765 11.8093 9.16108C12.2341 9.58451 12.2341 10.271 11.8093 10.6939C11.5765 10.9259 11.4485 11.2348 11.4485 11.5628C11.4485 11.8908 11.5765 12.1996 11.8093 12.4317C12.2341 12.8551 12.2341 13.541 11.8093 13.9645C11.5969 14.1762 11.3188 14.2818 11.0402 14.2818Z" fill="#7FDC92"/>
<path d="M52.2344 17.5522C51.9563 17.5522 51.6782 17.4467 51.4658 17.235C51.041 16.8115 51.041 16.125 51.4658 15.7016C52.5748 14.5961 53.1853 13.1265 53.1853 11.5627C53.1853 9.9988 52.5748 8.52921 51.4658 7.42378C51.041 7.00035 51.041 6.31382 51.4658 5.89039C51.8906 5.46753 52.5787 5.46753 53.0035 5.89039C54.5236 7.40571 55.3602 9.42011 55.3602 11.5627C55.3602 13.7052 54.5236 15.7196 53.0035 17.235C52.7911 17.4467 52.513 17.5522 52.2344 17.5522Z" fill="#7FDC92"/>
<path d="M55.5154 20.8222C55.2374 20.8222 54.9587 20.7166 54.7463 20.5049C54.3215 20.0815 54.3215 19.3955 54.7463 18.9721C58.8451 14.8863 58.8451 8.23896 54.7463 4.15313C54.3215 3.7297 54.3215 3.04374 54.7463 2.62031C55.1711 2.19688 55.8598 2.19688 56.284 2.62031C58.6803 5.00902 60 8.18476 60 11.5626C60 14.9405 58.6803 18.1168 56.284 20.5049C56.0722 20.7166 55.7935 20.8222 55.5154 20.8222Z" fill="#7FDC92"/>
<path d="M48.9542 14.2818C48.6755 14.2818 48.3974 14.1762 48.185 13.9645C47.7603 13.541 47.7603 12.8545 48.185 12.4317C48.4178 12.1996 48.5458 11.8908 48.5458 11.5628C48.5458 11.2348 48.4178 10.9265 48.185 10.6939C47.7603 10.271 47.7603 9.58451 48.185 9.16108C48.6098 8.73765 49.298 8.73765 49.7227 9.16108C50.3661 9.80244 50.7207 10.6555 50.7207 11.5628C50.7207 12.4701 50.3661 13.3231 49.7227 13.9645C49.5103 14.1762 49.2323 14.2818 48.9542 14.2818Z" fill="#7FDC92"/>
</svg>
