<svg width="74" height="74" viewBox="0 0 74 74" fill="none" xmlns="http://www.w3.org/2000/svg">
<path d="M4.16119 4.6871C4.03359 4.1022 3.45547 3.73127 2.87113 3.85886C2.28623 3.98646 1.91587 4.56402 2.04346 5.14892L5.53819 21.1716C5.64885 21.6791 6.09768 22.0252 6.5962 22.0252C6.67299 22.0252 6.75033 22.0168 6.82824 21.9998C7.41315 21.8722 7.78407 21.2947 7.65648 20.7098L4.16119 4.6871Z" fill="#594F69"/>
<path d="M21.6772 17.6514L18.1825 1.62875C18.0549 1.04385 17.4762 0.672921 16.8924 0.800515C16.3075 0.928109 15.9366 1.50567 16.0642 2.09057L19.5595 18.1138C19.6701 18.6208 20.119 18.9669 20.6175 18.9669C20.6937 18.9669 20.7716 18.959 20.849 18.9415C21.4339 18.8139 21.8048 18.2363 21.6772 17.6514Z" fill="#594F69"/>
<path d="M7.65485 20.7018C8.11103 22.793 6.65555 24.2626 4.56436 24.7187C2.47261 25.1749 0.537808 24.4449 0.0816303 22.3537C-0.374547 20.2625 1.13682 18.8963 3.22801 18.4401C5.3192 17.9845 7.19868 18.6106 7.65485 20.7018Z" fill="#685C79"/>
<path d="M21.6756 17.6437C22.1318 19.7348 20.6763 21.205 18.5851 21.6606C16.4934 22.1168 14.5586 21.3868 14.1024 19.2956C13.6462 17.2044 15.1576 15.8381 17.2488 15.382C19.34 14.9258 21.2194 15.5525 21.6756 17.6437Z" fill="#685C79"/>
<path d="M18.8025 4.47031L2.66353 7.99044L1.85957 4.30432C1.74214 3.76685 2.08314 3.23615 2.62062 3.11871L16.8124 0.0231438C17.3498 -0.094288 17.8811 0.246716 17.9985 0.784192L18.8025 4.47031Z" fill="#685C79"/>
<path d="M47.3209 36.1545L22.3689 61.1065C19.7532 63.7239 15.5098 63.7239 12.8936 61.1065C12.3499 60.5634 11.9197 59.9502 11.6013 59.2959C11.6013 59.2925 11.6002 59.2897 11.5985 59.2868C10.3903 56.7909 10.8222 53.7009 12.8936 51.6312L37.8456 26.6792L47.3209 36.1545Z" fill="#FF2C5C"/>
<path d="M47.3209 36.1543L22.3689 61.1063C19.7532 63.7236 15.5098 63.7236 12.8936 61.1063C12.3499 60.5632 11.9197 59.95 11.6013 59.2957C11.6013 59.2923 11.6001 59.2895 11.5984 59.2866C11.5984 59.2821 11.5956 59.2793 11.5945 59.2754C14.0814 60.4548 17.1443 60.0149 19.2021 57.9588L44.1542 33.0068L44.1558 32.9893L47.3209 36.1543Z" fill="#E62753"/>
<path d="M28.8964 47.42L26.58 45.1036C26.3474 44.871 26.3474 44.4938 26.58 44.2612L32.0547 38.7865C32.2873 38.5539 32.6644 38.5539 32.897 38.7865L35.2135 41.103C35.4461 41.3356 35.4461 41.7127 35.2135 41.9453L29.7388 47.42C29.5062 47.6526 29.129 47.6526 28.8964 47.42Z" fill="#685C79"/>
<path d="M32.4759 44.6824L29.3176 41.5241L32.0553 38.7865C32.2879 38.5539 32.6644 38.5539 32.8976 38.7865L35.2135 41.103C35.4461 41.3356 35.4461 41.7127 35.2135 41.9453L32.4759 44.6824Z" fill="#FFD659"/>
<path d="M57.5334 34.3645C52.0096 39.8883 47.4896 44.3247 38.5823 35.4174C29.675 26.5096 34.1114 21.9901 39.6352 16.4663C45.159 10.9419 51.0656 7.89266 58.5863 15.4134C66.107 22.9341 63.0572 28.8407 57.5334 34.3645Z" fill="#685C79"/>
<path d="M58.5865 15.4135C58.0225 14.8495 57.4681 14.3465 56.9216 13.8982C62.4544 20.637 59.4633 26.0744 54.3533 31.1844C49.1801 36.3582 44.8871 40.5767 37.0457 33.7741C37.5063 34.3054 38.0173 34.8524 38.5824 35.4176C47.4897 44.3249 52.0097 39.8885 57.5336 34.3646C63.0574 28.8408 66.1072 22.9342 58.5865 15.4135Z" fill="#594F69"/>
<path d="M45.6407 20.695C45.2172 20.2716 44.5307 20.2716 44.1079 20.695C43.6844 21.1179 43.6844 21.8044 44.1079 22.2278C44.5307 22.6513 45.2172 22.6513 45.6407 22.2278C46.0641 21.8044 46.0641 21.1179 45.6407 20.695Z" fill="#50475E"/>
<path d="M49.4725 24.5268C49.0496 24.1034 48.3631 24.1034 47.9396 24.5268C47.5162 24.9502 47.5162 25.6368 47.9396 26.0596C48.3631 26.4831 49.0496 26.4831 49.4725 26.0596C49.8959 25.6368 49.8959 24.9502 49.4725 24.5268Z" fill="#50475E"/>
<path d="M53.3047 28.3593C52.8813 27.9359 52.1948 27.9359 51.7719 28.3593C51.3485 28.7828 51.3485 29.4687 51.7719 29.8921C52.1948 30.3156 52.8813 30.3156 53.3047 29.8921C53.7282 29.4687 53.7282 28.7828 53.3047 28.3593Z" fill="#50475E"/>
<path d="M57.7564 20.0237C57.333 19.6008 56.6464 19.6008 56.2236 20.0237C55.8001 20.4471 55.8001 21.1337 56.2236 21.5571C56.6464 21.9799 57.333 21.9799 57.7564 21.5571C58.1798 21.1337 58.1798 20.4471 57.7564 20.0237Z" fill="#50475E"/>
<path d="M53.98 16.2473C53.5566 15.8238 52.8706 15.8238 52.4472 16.2473C52.0238 16.6707 52.0238 17.3572 52.4472 17.7806C52.8706 18.2035 53.5566 18.2035 53.98 17.7806C54.4035 17.3572 54.4035 16.6707 53.98 16.2473Z" fill="#50475E"/>
<path d="M44.9693 32.8103C44.5464 32.3874 43.8599 32.3874 43.4365 32.8103C43.013 33.2337 43.013 33.9203 43.4365 34.3437C43.8599 34.7666 44.5464 34.7666 44.9693 34.3437C45.3927 33.9203 45.3927 33.2337 44.9693 32.8103Z" fill="#50475E"/>
<path d="M41.1929 29.0339C40.7701 28.6111 40.0835 28.6111 39.6601 29.0339C39.2367 29.4574 39.2367 30.1439 39.6601 30.5673C40.0835 30.9908 40.7701 30.9908 41.1929 30.5673C41.6164 30.1439 41.6164 29.4574 41.1929 29.0339Z" fill="#50475E"/>
<path d="M50.2984 16.0373C49.875 15.6139 49.1884 15.6139 48.7656 16.0373C48.3421 16.4607 48.3421 17.1467 48.7656 17.5701C49.1884 17.9936 49.875 17.9936 50.2984 17.5701C50.7218 17.1467 50.7218 16.4607 50.2984 16.0373Z" fill="#50475E"/>
<path d="M54.1302 19.8689C53.7073 19.446 53.0208 19.446 52.5974 19.8689C52.1739 20.2923 52.1739 20.9789 52.5974 21.4023C53.0208 21.8252 53.7073 21.8252 54.1302 21.4023C54.5536 20.9789 54.5536 20.2923 54.1302 19.8689Z" fill="#50475E"/>
<path d="M57.9625 23.7014C57.539 23.2779 56.8525 23.2779 56.4296 23.7014C56.0062 24.1248 56.0062 24.8113 56.4296 25.2342C56.8525 25.6576 57.539 25.6576 57.9625 25.2342C58.3859 24.8113 58.3859 24.1248 57.9625 23.7014Z" fill="#50475E"/>
<path d="M40.983 25.3522C40.5595 24.9288 39.8736 24.9288 39.4501 25.3522C39.0267 25.7757 39.0267 26.4622 39.4501 26.8851C39.8736 27.3085 40.5595 27.3085 40.983 26.8851C41.4064 26.4622 41.4064 25.7757 40.983 25.3522Z" fill="#50475E"/>
<path d="M44.8153 29.1848C44.3919 28.7613 43.7054 28.7613 43.2819 29.1848C42.8585 29.6082 42.8585 30.2942 43.2819 30.7176C43.7054 31.141 44.3919 31.141 44.8153 30.7176C45.2382 30.2942 45.2382 29.6082 44.8153 29.1848Z" fill="#50475E"/>
<path d="M48.647 33.017C48.2236 32.5936 47.5376 32.5936 47.1142 33.017C46.6908 33.4399 46.6908 34.1264 47.1142 34.5499C47.5376 34.9733 48.2236 34.9733 48.647 34.5499C49.0705 34.1264 49.0705 33.4399 48.647 33.017Z" fill="#50475E"/>
<path d="M53.6514 24.1289C53.2286 23.7054 52.542 23.7054 52.1186 24.1289C51.6952 24.5523 51.6952 25.2382 52.1186 25.6617C52.542 26.0851 53.2286 26.0851 53.6514 25.6617C54.0749 25.2382 54.0749 24.5523 53.6514 24.1289Z" fill="#50475E"/>
<path d="M57.5358 28.0126C57.1123 27.5892 56.4258 27.5892 56.0024 28.0126C55.579 28.4361 55.579 29.1226 56.0024 29.5455C56.4258 29.9689 57.1123 29.9689 57.5358 29.5455C57.9586 29.1226 57.9586 28.4361 57.5358 28.0126Z" fill="#50475E"/>
<path d="M45.9873 16.4641C45.5638 16.0406 44.8773 16.0406 44.4539 16.4641C44.031 16.8875 44.031 17.5735 44.4539 17.9969C44.8773 18.4203 45.5638 18.4203 45.9873 17.9969C46.4101 17.5735 46.4101 16.8875 45.9873 16.4641Z" fill="#50475E"/>
<path d="M49.8751 20.3525C49.4522 19.9291 48.7657 19.9291 48.3422 20.3525C47.9188 20.7759 47.9188 21.4619 48.3422 21.8853C48.7657 22.3087 49.4522 22.3087 49.8751 21.8853C50.2985 21.4619 50.2985 20.7759 49.8751 20.3525Z" fill="#50475E"/>
<path d="M49.0745 28.706C48.6511 28.2826 47.9651 28.2826 47.5417 28.706C47.1183 29.1294 47.1183 29.8154 47.5417 30.2388C47.9651 30.6623 48.6511 30.6623 49.0745 30.2388C49.498 29.8154 49.498 29.1294 49.0745 28.706Z" fill="#50475E"/>
<path d="M52.9581 32.5896C52.5346 32.1667 51.8487 32.1667 51.4252 32.5896C51.0018 33.013 51.0018 33.6996 51.4252 34.123C51.8487 34.5459 52.5346 34.5459 52.9581 34.123C53.3815 33.6996 53.3815 33.013 52.9581 32.5896Z" fill="#50475E"/>
<path d="M41.4097 21.0412C40.9869 20.6178 40.3003 20.6178 39.8769 21.0412C39.4535 21.4646 39.4535 22.1512 39.8769 22.574C40.3003 22.9975 40.9869 22.9975 41.4097 22.574C41.8332 22.1512 41.8332 21.4646 41.4097 21.0412Z" fill="#50475E"/>
<path d="M45.2979 24.9294C44.8745 24.506 44.1885 24.506 43.7651 24.9294C43.3417 25.3528 43.3417 26.0388 43.7651 26.4622C44.1885 26.8856 44.8745 26.8856 45.2979 26.4622C45.7213 26.0388 45.7213 25.3528 45.2979 24.9294Z" fill="#50475E"/>
<path d="M33.6695 27.7668L32.3213 32.1417L41.8276 41.6481L46.233 40.3304L33.6695 27.7668Z" fill="#FFD659"/>
<path d="M38.6699 38.4906L43.1527 37.2502L46.233 40.3306L41.8276 41.6483L38.6699 38.4906Z" fill="#FFBD54"/>
<path d="M59.5485 50.1163C58.9907 49.8995 58.3623 50.1762 58.1455 50.734L52.2062 66.0205C51.9894 66.5788 52.266 67.2066 52.8244 67.4234C52.9531 67.4737 53.0858 67.4974 53.2168 67.4974C53.6509 67.4974 54.0608 67.2349 54.2274 66.8058L60.1661 51.5193C60.3829 50.9615 60.1063 50.3331 59.5485 50.1163Z" fill="#E62753"/>
<path d="M72.925 55.3134C72.3672 55.0966 71.7388 55.3732 71.522 55.931L65.5826 71.2175C65.3659 71.7758 65.6425 72.4037 66.2009 72.6204C66.3296 72.6707 66.4623 72.6944 66.5927 72.6944C67.0268 72.6944 67.4367 72.4319 67.6038 72.0028L73.5426 56.7163C73.7594 56.1585 73.4828 55.5302 72.925 55.3134Z" fill="#E62753"/>
<path d="M72.5658 59.2308L57.1687 53.2485L58.535 49.7318C58.7343 49.2191 59.3113 48.9645 59.8245 49.1638L73.3641 54.4245C73.8768 54.6238 74.1314 55.2008 73.9321 55.714L72.5658 59.2308Z" fill="#FF2C5C"/>
<path d="M54.2193 66.7945C53.4453 68.7863 51.4229 69.2064 49.4306 68.4329C47.4387 67.6589 46.2305 65.9838 47.0046 63.9914C47.7786 61.999 49.7902 61.6958 51.782 62.4704C53.7744 63.2439 54.9928 64.8021 54.2193 66.7945Z" fill="#FF2C5C"/>
<path d="M67.6049 71.9948C66.8303 73.9894 64.8052 74.4106 62.8105 73.6354C60.8159 72.8603 59.606 71.1829 60.3811 69.1883C61.1563 67.1931 63.1702 66.8899 65.1648 67.665C67.16 68.4402 68.3801 70.0001 67.6049 71.9948Z" fill="#FF2C5C"/>
</svg>
