<svg width="74" height="67" viewBox="0 0 74 67" fill="none" xmlns="http://www.w3.org/2000/svg">
<path d="M30.4771 53.0713H41.169V61.4481H30.4771V53.0713Z" fill="#9C9C9C"/>
<path d="M30.4771 53.0713H35.2132V61.4481H30.4771V53.0713Z" fill="#838383"/>
<path d="M46.3474 44.6808C32.7428 44.4848 19.1339 44.6683 5.537 45.2362L2.02417 45.3829V50.4704C2.02417 51.9861 3.26006 53.215 4.78472 53.215H46.3474V44.6808Z" fill="#ACACAC"/>
<path d="M47.9922 66.8563C47.0854 66.8563 46.3475 66.1227 46.3475 65.221V61.3044H12.0842C11.2618 61.3044 10.5952 61.9672 10.5952 62.7848V65.5196C10.5952 66.3373 11.2618 67 12.0842 67H47.9921V66.8563H47.9922Z" fill="#ACACAC"/>
<path d="M16.7697 65.5196V62.7848C16.7697 61.9672 17.4363 61.3044 18.2587 61.3044H12.0842C11.2618 61.3044 10.5952 61.9672 10.5952 62.7848V65.5196C10.5952 66.3371 11.2618 67 12.0842 67H18.2587C17.4365 66.9999 16.7697 66.3371 16.7697 65.5196Z" fill="#9C9C9C"/>
<path d="M9.00816 50.4705V45.3831H2.02441V50.4705C2.02441 51.9862 3.2603 53.2151 4.78482 53.2151H11.7686C10.2441 53.2151 9.00816 51.9864 9.00816 50.4705Z" fill="#9C9C9C"/>
<path d="M46.3475 19.3243C46.3475 18.4224 47.0855 17.6885 47.9927 17.6885H69.622V7.47228C69.622 6.33549 68.6951 5.41382 67.5516 5.41382H19.8958V8.78437C19.8958 8.96284 19.8256 9.1281 19.698 9.24966C19.576 9.36591 19.4107 9.43245 19.244 9.43245C19.1304 9.43245 19.0213 9.40284 18.9198 9.34465L15.1244 7.16606V9.96226C15.1244 10.3189 14.8325 10.6092 14.4738 10.6092H2.02441V45.383H46.3475V19.3243Z" fill="#C4E2FF"/>
<path d="M46.2029 23.6483V65.2211C46.2029 66.2036 47.004 67.0001 47.9922 67.0001H72.2107C73.1989 67.0001 74 66.2036 74 65.2211V23.6483C65.1914 22.6929 56.3068 22.6503 47.4894 23.5213L46.2029 23.6483Z" fill="#EAF6FF"/>
<path d="M2.02441 10.6091H9.00816V45.3829H2.02441V10.6091Z" fill="#8AC9FE"/>
<path d="M64.7827 11.1547C65.3814 11.1547 65.8667 10.6722 65.8667 10.077C65.8667 9.48178 65.3814 8.99927 64.7827 8.99927C64.184 8.99927 63.6987 9.48178 63.6987 10.077C63.6987 10.6722 64.184 11.1547 64.7827 11.1547Z" fill="#FD4755"/>
<path d="M39.3822 45.3831V36.353C39.3822 34.3091 37.7156 32.6521 35.6598 32.6521H20.175C18.1192 32.6521 16.4526 34.3091 16.4526 36.353V45.3831H39.3822Z" fill="#00C285"/>
<path d="M24.6418 32.6521H20.175C18.1192 32.6521 16.4526 34.3091 16.4526 36.353V45.3831H20.9194V36.353C20.9194 34.3091 22.586 32.6521 24.6418 32.6521Z" fill="#07B27B"/>
<path d="M28.2082 32.5998H27.6269C26.6776 32.5998 25.772 32.4127 24.9431 32.0762V34.1454C24.9431 35.7788 26.2748 37.1028 27.9177 37.1028C29.5606 37.1028 30.8923 35.7788 30.8923 34.1454V32.0762C30.0633 32.4127 29.1575 32.5998 28.2082 32.5998Z" fill="#FEDBA6"/>
<path d="M19.8886 21.1689H20.5034V20.5753C20.5034 18.9971 21.7949 17.713 23.3823 17.713H32.4525C34.0399 17.713 35.3314 18.9971 35.3314 20.5753V21.1689H35.9461C36.1798 21.1689 36.4053 21.2035 36.6196 21.2646V15.1196C36.6196 12.8223 34.7465 10.96 32.4359 10.96H23.3991C21.0885 10.96 19.2153 12.8223 19.2153 15.1196V21.2645C19.4295 21.2035 19.6549 21.1689 19.8886 21.1689Z" fill="#838383"/>
<path d="M19.8887 21.1689H20.5035V20.5753C20.5035 18.9971 21.7951 17.713 23.3825 17.713H24.5698V15.1196C24.5698 12.8223 26.4429 10.96 28.7535 10.96H23.3991C21.0885 10.96 19.2153 12.8223 19.2153 15.1196V21.2645C19.4297 21.2035 19.655 21.1689 19.8887 21.1689Z" fill="#5A5A5A"/>
<path d="M35.9461 21.0254H35.3314V25.5179C35.3314 26.2841 35.2068 27.0214 34.9795 27.713H35.9461C37.3816 27.713 38.5452 26.556 38.5452 25.1288V23.6095C38.5454 22.1823 37.3816 21.0254 35.9461 21.0254Z" fill="#FECE85"/>
<path d="M20.5035 25.5177V21.0251H19.8887C18.4532 21.0251 17.2896 22.1821 17.2896 23.6092V25.1286C17.2896 26.5558 18.4533 27.7128 19.8887 27.7128H20.8554C20.6281 27.0213 20.5035 26.2839 20.5035 25.5177Z" fill="#FEDBA6"/>
<path d="M20.3589 20.5752V25.5176C20.3589 29.5084 23.6129 32.7436 27.6268 32.7436H28.2082C32.2222 32.7436 35.476 29.5084 35.476 25.5178V20.5753C35.476 18.9152 34.1223 17.5693 32.4525 17.5693H23.3823C21.7126 17.5692 20.3589 18.9151 20.3589 20.5752Z" fill="#FEDBA6"/>
<path d="M25.0096 25.5178V20.5753C25.0096 18.9152 26.3633 17.5693 28.0331 17.5693H23.3823C21.7126 17.5693 20.3589 18.9152 20.3589 20.5753V25.5178C20.3589 29.5085 23.6129 32.7437 27.6268 32.7437H28.2082C28.9148 32.7437 29.597 32.6416 30.2429 32.4546C27.2196 31.5794 25.0096 28.8061 25.0096 25.5178Z" fill="#FECE85"/>
<path d="M24.6672 25.3297C24.0684 25.3297 23.5833 24.8472 23.5833 24.252V22.4483C23.5833 21.8531 24.0684 21.3706 24.6672 21.3706C25.266 21.3706 25.7512 21.8531 25.7512 22.4483V24.2519C25.7512 24.8472 25.2659 25.3297 24.6672 25.3297Z" fill="#C4573A"/>
<path d="M31.1675 25.3295C30.5687 25.3295 30.0835 24.847 30.0835 24.2518V22.4481C30.0835 21.8529 30.5687 21.3704 31.1675 21.3704C31.7663 21.3704 32.2515 21.8529 32.2515 22.4481V24.2516C32.2515 24.847 31.7663 25.3295 31.1675 25.3295Z" fill="#C4573A"/>
<path d="M27.9175 29.6393C27.0205 29.6393 26.1236 29.2999 25.4407 28.6211C25.0172 28.2002 25.0172 27.5178 25.4405 27.0969C25.864 26.676 26.5504 26.676 26.9734 27.0969C27.494 27.6145 28.3407 27.6142 28.8613 27.0969C29.2845 26.676 29.9709 26.6763 30.3942 27.0969C30.8175 27.5178 30.8175 28.2002 30.394 28.6211C29.7113 29.2999 28.8143 29.6393 27.9175 29.6393Z" fill="#C4573A"/>
<path d="M18.8474 1.2838L15.1243 3.42101V7.33201L18.8474 9.46921C19.3775 9.77356 20.0402 9.39319 20.0402 8.78449V1.96866C20.0402 1.35996 19.3775 0.979598 18.8474 1.2838Z" fill="#FD4755"/>
<path d="M14.4736 10.753H0.795211C0.35598 10.753 0 10.3989 0 9.96222V0.79062C0 0.353925 0.35598 0 0.795211 0H14.4735C14.9127 0 15.2687 0.353925 15.2687 0.79062V9.96222C15.2689 10.3989 14.9127 10.753 14.4736 10.753Z" fill="#FE646F"/>
<path d="M4.69018 9.96222V0.79062C4.69018 0.353925 5.04631 0 5.48539 0H0.795211C0.356125 0 0 0.353925 0 0.79062V9.96222C0 10.3989 0.356125 10.7528 0.795211 10.7528H5.48539C5.04616 10.753 4.69018 10.3989 4.69018 9.96222Z" fill="#FD4755"/>
<path d="M9.54305 6.45428H5.72583C5.12704 6.45428 4.64185 5.97175 4.64185 5.37655C4.64185 4.78136 5.12704 4.29883 5.72583 4.29883H9.54305C10.1418 4.29883 10.627 4.78136 10.627 5.37655C10.627 5.97175 10.1418 6.45428 9.54305 6.45428Z" fill="white"/>
<path d="M52.6368 17.5447H47.9926C47.0042 17.5447 46.2029 18.3413 46.2029 19.3241V65.2207C46.2029 66.2032 47.004 66.9997 47.9922 66.9997H50.8471V19.3241C50.8471 18.3413 51.6484 17.5447 52.6368 17.5447Z" fill="#D8ECFE"/>
<path d="M67.9145 43.8506H52.2883C51.4099 43.8506 50.6978 43.1426 50.6978 42.2693V30.828C50.6978 29.9546 51.4099 29.2466 52.2883 29.2466H67.9145C68.7929 29.2466 69.505 29.9546 69.505 30.828V42.2693C69.5049 43.1426 68.7929 43.8506 67.9145 43.8506Z" fill="#FE646F"/>
<path d="M53.7783 42.2693V30.828C53.7783 29.9546 54.4904 29.2466 55.3689 29.2466H52.2883C51.4099 29.2466 50.6978 29.9546 50.6978 30.828V42.2693C50.6978 43.1426 51.4099 43.8506 52.2883 43.8506H55.3689C54.4904 43.8505 53.7783 43.1425 53.7783 42.2693Z" fill="#FD4755"/>
<path d="M63.2519 63.3643H56.9512C56.512 63.3643 56.156 63.7182 56.156 64.1549V66.9998H64.0473V64.1549C64.0471 63.7183 63.6911 63.3643 63.2519 63.3643Z" fill="#0593FC"/>
<path d="M72.2103 17.5447H47.9926C47.0042 17.5447 46.2029 18.3413 46.2029 19.3241V23.6481H74V19.3241C74 18.3413 73.1987 17.5447 72.2103 17.5447Z" fill="#0593FC"/>
<path d="M52.6368 17.5447H47.9926C47.0042 17.5447 46.2029 18.3413 46.2029 19.3241V23.6481H50.8471V19.3241C50.8471 18.3413 51.6484 17.5447 52.6368 17.5447Z" fill="#0182FC"/>
<path d="M62.5949 36.1378L57.7826 33.3756C57.4645 33.1929 57.0669 33.4213 57.0669 33.7864V39.3111C57.0669 39.6762 57.4645 39.9046 57.7826 39.7219L62.5949 36.9596C62.913 36.7769 62.913 36.3205 62.5949 36.1378Z" fill="white"/>
<path d="M56.7809 49.7377H50.6978C50.099 49.7377 49.6138 49.2552 49.6138 48.66C49.6138 48.0648 50.099 47.5823 50.6978 47.5823H56.7809C57.3797 47.5823 57.8649 48.0648 57.8649 48.66C57.8649 49.2552 57.3797 49.7377 56.7809 49.7377Z" fill="#8AC9FE"/>
<path d="M61.5525 53.6911H50.6978C50.099 53.6911 49.6138 53.2086 49.6138 52.6134C49.6138 52.0182 50.099 51.5356 50.6978 51.5356H61.5525C62.1513 51.5356 62.6365 52.0182 62.6365 52.6134C62.6365 53.2086 62.1513 53.6911 61.5525 53.6911Z" fill="#8AC9FE"/>
<path d="M61.5525 57.6442H50.6978C50.099 57.6442 49.6138 57.1617 49.6138 56.5665C49.6138 55.9713 50.099 55.4888 50.6978 55.4888H61.5525C62.1513 55.4888 62.6365 55.9713 62.6365 56.5665C62.6365 57.1617 62.1513 57.6442 61.5525 57.6442Z" fill="#8AC9FE"/>
<path d="M69.5049 49.7377H66.6418C66.0431 49.7377 65.5579 49.2552 65.5579 48.66C65.5579 48.0648 66.0431 47.5823 66.6418 47.5823H69.5049C70.1037 47.5823 70.5888 48.0648 70.5888 48.66C70.5888 49.2552 70.1037 49.7377 69.5049 49.7377Z" fill="#B3DAFE"/>
<path d="M69.5049 53.6911H66.6418C66.0431 53.6911 65.5579 53.2086 65.5579 52.6134C65.5579 52.0182 66.0431 51.5356 66.6418 51.5356H69.5049C70.1037 51.5356 70.5888 52.0182 70.5888 52.6134C70.5888 53.2086 70.1037 53.6911 69.5049 53.6911Z" fill="#B3DAFE"/>
<path d="M69.5049 57.6442H66.6418C66.0431 57.6442 65.5579 57.1617 65.5579 56.5665C65.5579 55.9713 66.0431 55.4888 66.6418 55.4888H69.5049C70.1037 55.4888 70.5888 55.9713 70.5888 56.5665C70.5888 57.1617 70.1037 57.6442 69.5049 57.6442Z" fill="#B3DAFE"/>
<path d="M10.9438 42.1274H6.77466C6.17587 42.1274 5.69067 41.6448 5.69067 41.0497C5.69067 40.4545 6.17587 39.9719 6.77466 39.9719H10.9438C11.5426 39.9719 12.0278 40.4545 12.0278 41.0497C12.0278 41.6448 11.5425 42.1274 10.9438 42.1274Z" fill="white"/>
<path d="M10.9438 38.4267H6.77466C6.17587 38.4267 5.69067 37.9442 5.69067 37.349C5.69067 36.7538 6.17587 36.2712 6.77466 36.2712H10.9438C11.5426 36.2712 12.0278 36.7538 12.0278 37.349C12.0278 37.9442 11.5425 38.4267 10.9438 38.4267Z" fill="white"/>
<path d="M10.9438 34.7255H6.77466C6.17587 34.7255 5.69067 34.243 5.69067 33.6478C5.69067 33.0526 6.17587 32.5701 6.77466 32.5701H10.9438C11.5426 32.5701 12.0278 33.0526 12.0278 33.6478C12.0278 34.243 11.5425 34.7255 10.9438 34.7255Z" fill="white"/>
</svg>
