<svg width="51" height="74" viewBox="0 0 51 74" fill="none" xmlns="http://www.w3.org/2000/svg">
<path d="M1.27505 -2.17355e-06L49.7249 -5.57346e-08C50.4291 -2.49568e-08 51 0.571113 51 1.27543L51 72.6964C51 73.4007 50.4291 73.9718 49.7249 73.9718L1.27505 73.9718C0.570939 73.9718 -7.02314e-06 73.4007 -6.99236e-06 72.6964L-3.87045e-06 1.27543C-3.83966e-06 0.571111 0.570942 -2.20432e-06 1.27505 -2.17355e-06Z" fill="#6F7588"/>
<path d="M44.6241 4.46354C44.6241 5.52007 45.4803 6.37655 46.5365 6.37655C47.5927 6.37655 48.449 5.52007 48.449 4.46354C48.449 3.40702 47.5927 2.55054 46.5365 2.55054C45.4803 2.55054 44.6241 3.40702 44.6241 4.46354Z" fill="#D4DEED"/>
<path d="M44.6248 69.5075C44.6248 70.564 45.4811 71.4205 46.5373 71.4205C47.5935 71.4205 48.4497 70.564 48.4497 69.5075C48.4497 68.451 47.5935 67.5945 46.5373 67.5945C45.4811 67.5945 44.6248 68.451 44.6248 69.5075Z" fill="#D4DEED"/>
<path d="M2.55012 4.46354C2.55012 5.52007 3.40635 6.37655 4.46256 6.37655C5.51877 6.37655 6.375 5.52007 6.375 4.46354C6.375 3.40702 5.51877 2.55054 4.46256 2.55054C3.40635 2.55054 2.55012 3.40702 2.55012 4.46354Z" fill="#D4DEED"/>
<path d="M2.55012 69.5075C2.55012 70.564 3.40635 71.4205 4.46256 71.4205C5.51877 71.4205 6.375 70.564 6.375 69.5075C6.375 68.451 5.51877 67.5945 4.46256 67.5945C3.40635 67.5945 2.55012 68.451 2.55012 69.5075Z" fill="#D4DEED"/>
<path d="M2.54989 48.4639C2.54989 61.1426 12.825 71.4207 25.4999 71.4207C38.1749 71.4207 48.4499 61.1426 48.45 48.4639C48.45 35.7852 38.1749 25.5071 25.4999 25.5071C12.825 25.5071 2.54989 35.7852 2.54989 48.4639Z" fill="#D4DEED"/>
<path d="M15.2999 48.4638C15.2999 42.8379 19.8757 38.2607 25.4999 38.2607C31.1242 38.2607 35.7 42.8379 35.7 48.4638C35.7 54.0897 31.1242 58.6668 25.4999 58.6668C19.8757 58.6668 15.2999 54.0897 15.2999 48.4638ZM33.15 48.4638C33.15 44.2441 29.7181 40.8115 25.4999 40.8115C21.2817 40.8115 17.8499 44.2439 17.8499 48.4638C17.8499 52.6836 21.2817 56.1161 25.4999 56.1161C29.7181 56.1161 33.15 52.6835 33.15 48.4638Z" fill="#B6BFD5"/>
<path d="M22.9499 48.4638C22.9499 49.8725 24.0915 51.0145 25.4998 51.0145C26.9081 51.0145 28.0498 49.8725 28.0498 48.4638C28.0498 47.0551 26.9081 45.9131 25.4998 45.9131C24.0915 45.9131 22.9499 47.0551 22.9499 48.4638Z" fill="#B6BFD5"/>
<path d="M27.7311 44.9568C27.7311 45.6612 28.302 46.2323 29.0062 46.2323C29.7104 46.2323 30.2812 45.6612 30.2812 44.9568C30.2812 44.2524 29.7104 43.6814 29.0062 43.6814C28.302 43.6814 27.7311 44.2524 27.7311 44.9568Z" fill="#444455"/>
<path d="M27.7311 51.9712C27.7311 52.6756 28.302 53.2467 29.0062 53.2467C29.7104 53.2467 30.2812 52.6756 30.2812 51.9712C30.2812 51.2668 29.7104 50.6958 29.0062 50.6958C28.302 50.6958 27.7311 51.2668 27.7311 51.9712Z" fill="#444455"/>
<path d="M20.7187 44.9566C20.7187 45.661 21.2895 46.232 21.9937 46.232C22.6979 46.232 23.2688 45.661 23.2688 44.9566C23.2688 44.2522 22.6979 43.6812 21.9937 43.6812C21.2895 43.6812 20.7187 44.2522 20.7187 44.9566Z" fill="#444455"/>
<path d="M20.7187 51.9712C20.7187 52.6756 21.2895 53.2467 21.9937 53.2467C22.6979 53.2467 23.2688 52.6756 23.2688 51.9712C23.2688 51.2668 22.6979 50.6958 21.9937 50.6958C21.2895 50.6958 20.7187 51.2668 20.7187 51.9712Z" fill="#444455"/>
<path d="M25.4999 22.9565C34.2568 22.9565 41.9632 27.3829 46.5492 34.1125C47.1295 34.964 48.4499 34.57 48.4499 33.5395L48.45 11.2227C48.45 9.99076 47.486 8.99951 46.2572 8.91817C45.849 8.89101 45.4265 8.80389 44.9935 8.64482C43.782 8.19969 42.7967 7.2122 42.3544 5.99932C42.1977 5.56994 42.1115 5.15125 42.0846 4.74643C42.0023 3.51621 41.0129 2.55054 39.7803 2.55054L11.2198 2.55054C9.98734 2.55054 8.99797 3.51621 8.91565 4.74628C8.88849 5.1511 8.80255 5.56979 8.64584 5.99918C8.20345 7.21234 7.21783 8.19998 6.00589 8.64496C5.57331 8.80374 5.15128 8.89101 4.74369 8.91802C3.51427 8.9998 2.55003 9.99047 2.55003 11.2228L2.55003 33.5398C2.55003 34.5702 3.87044 34.964 4.45078 34.1127C9.03683 27.3829 16.7431 22.9565 25.4999 22.9565Z" fill="#5A5D6F"/>
<path d="M25.5 15.3041L25.5 6.37651C25.5 5.67219 26.071 5.10107 26.7751 5.10107L29.325 5.10107C30.0292 5.10107 30.6001 5.67219 30.6001 6.37651L30.6001 15.3041C30.6001 16.0084 30.0292 16.5795 29.325 16.5795L26.7751 16.5795C26.071 16.5795 25.5 16.0084 25.5 15.3041Z" fill="#444455"/>
<path d="M2.54998 34.4347L2.54998 29.3333C2.54998 28.629 3.12093 28.0579 3.82504 28.0579C4.52915 28.0579 5.1001 28.629 5.1001 29.3333L5.1001 34.4347C5.1001 35.1391 4.52915 35.7102 3.82504 35.7102C3.12093 35.71 2.54998 35.1391 2.54998 34.4347Z" fill="#C4CFE3"/>
<path d="M32.2019 17.8547L26.6276 34.5824C26.4028 35.2573 26.7081 35.9947 27.3442 36.3128C28.05 36.6658 28.9082 36.3796 29.2611 35.6737L36.9749 20.2419L32.2019 17.8547Z" fill="white"/>
<path d="M30.5999 19.1304C30.5999 21.2435 32.3125 22.9565 34.425 22.9565C36.5375 22.9565 38.25 21.2435 38.25 19.1304C38.25 17.0172 36.5375 15.3042 34.425 15.3042C32.3125 15.3042 30.5999 17.0172 30.5999 19.1304Z" fill="#C4CFE3"/>
<path d="M33.1498 19.1302C33.1498 19.8346 33.7207 20.4056 34.4249 20.4056C35.1291 20.4056 35.7 19.8346 35.7 19.1302C35.7 18.4258 35.1291 17.8547 34.4249 17.8547C33.7207 17.8547 33.1498 18.4258 33.1498 19.1302Z" fill="#929CB4"/>
<path d="M30.462 14.135C31.8733 13.0131 33.771 12.4771 35.7874 12.8946C38.195 13.3931 40.1395 15.3371 40.6518 17.7424C41.0016 19.3846 40.7121 20.9362 39.993 22.2168C39.4817 23.1274 39.694 24.264 40.5741 24.8262C41.7437 25.5734 42.8604 26.4082 43.9129 27.326C44.6913 28.0048 45.8999 27.4792 45.8999 26.4462L45.8999 12.5397C45.8999 11.948 45.5052 11.4242 44.9302 11.2862C44.2355 11.1196 43.5518 10.8454 42.9015 10.4689C41.9289 9.90586 41.1056 9.08452 40.5408 8.11263C40.1606 7.4583 39.8843 6.77016 39.7167 6.07075C39.5791 5.49574 39.0548 5.10132 38.4637 5.10132L29.3558 5.10132C28.6346 5.10132 28.05 5.68601 28.05 6.40752L28.05 12.9026C28.05 14.1446 29.4898 14.9079 30.462 14.135Z" fill="#D4DEED"/>
<path d="M30.6 8.92729C30.6 9.63169 31.1709 10.2027 31.8751 10.2027C32.5793 10.2027 33.1501 9.63169 33.1501 8.92729C33.1501 8.22289 32.5793 7.65186 31.8751 7.65186C31.1709 7.65186 30.6 8.22289 30.6 8.92729Z" fill="#444455"/>
<path d="M7.64999 21.681L7.64999 20.4056C7.64999 19.7012 8.22093 19.1301 8.92505 19.1301L20.4 19.1301C21.1041 19.1301 21.675 18.559 21.675 17.8547L21.675 6.37651C21.675 5.67219 21.1041 5.10107 20.4 5.10107L8.86583 5.10107C8.82163 5.39508 8.75736 5.69299 8.64571 5.99899C8.20332 7.21201 7.2177 8.19979 6.00576 8.64478C5.69725 8.7579 5.39654 8.82335 5.09987 8.86785L5.09987 21.681C5.09987 22.3853 5.67082 22.9564 6.37493 22.9564C7.07904 22.9564 7.64999 22.3853 7.64999 21.681Z" fill="#66E177"/>
<path d="M20.4 5.10107L16.8092 5.10107C16.6667 5.50185 16.575 5.9269 16.575 6.37651C16.575 8.48961 18.2875 10.2027 20.4 10.2027C20.8495 10.2027 21.2742 10.1108 21.675 9.96832L21.675 6.37651C21.6749 5.67219 21.1041 5.10107 20.4 5.10107Z" fill="#00C85C"/>
<path d="M19.1249 6.37651C19.1249 7.08091 19.6958 7.65194 20.4 7.65194C21.1042 7.65194 21.675 7.08091 21.675 6.37651C21.675 5.67211 21.1042 5.10107 20.4 5.10107C19.6958 5.10107 19.1249 5.6721 19.1249 6.37651Z" fill="#D4DEED"/>
<path d="M5.09979 21.6812C5.09979 22.3856 5.67065 22.9566 6.37484 22.9566C7.07904 22.9566 7.6499 22.3856 7.6499 21.6812C7.6499 20.9768 7.07904 20.4058 6.37484 20.4058C5.67065 20.4058 5.09979 20.9768 5.09979 21.6812Z" fill="#D4DEED"/>
<path d="M2.54998 34.4349C2.54998 35.1393 3.12084 35.7103 3.82504 35.7103C4.52923 35.7103 5.1001 35.1393 5.1001 34.4349C5.1001 33.7305 4.52923 33.1594 3.82504 33.1594C3.12084 33.1594 2.54998 33.7305 2.54998 34.4349Z" fill="#D4DEED"/>
</svg>
