<svg width="74" height="74" viewBox="0 0 74 74" fill="none" xmlns="http://www.w3.org/2000/svg">
<path d="M25.4958 58.4031L25.8431 65.477L25.4765 69.1225L25.4634 69.1541L32.6 72.551H47.2494L50.0822 68.3471V58.4031H25.4958Z" fill="#D7D0D6"/>
<path d="M28.0689 58.4031H23.7683V68.3471L32.6001 72.551H36.9008L28.0689 68.3471V58.4031Z" fill="#C9BFC8"/>
<path d="M53.3361 72.8759L50.0823 68.3474H26.5843L25.7178 70.3607L24.2246 73.4134L24.7526 74.0002H52.7565C53.3361 74.0002 53.6737 73.3456 53.3361 72.8759Z" fill="#EFEDEF"/>
<path d="M70.1637 11.0903H8.34249L4.30859 12.1785L5.32028 56.8552L10.6987 58.2028H70.1633L74 55.5223V14.9181C74.0001 12.8036 72.2821 11.0903 70.1637 11.0903Z" fill="#C8EFFE"/>
<path d="M6.86517 14.918C6.86517 12.8036 8.58319 11.0903 10.7016 11.0903H3.83639C1.71801 11.0903 0 12.8036 0 14.918V55.5222L10.6987 58.2026H17.5639L6.86517 55.5222V14.918Z" fill="#99E6FC"/>
<path d="M5.87451 55.5222V61.8326H70.1636C72.2819 61.8326 74 60.1193 74 58.0049V55.5222H5.87451Z" fill="#EFEDEF"/>
<path d="M6.86517 58.0049V55.5222H0V58.0049C0 60.1193 1.71801 61.8326 3.83639 61.8326H10.7016C8.58319 61.8326 6.86517 60.1193 6.86517 58.0049Z" fill="#E5E1E5"/>
<path d="M24.8153 72.8759L28.069 68.3474H23.7685L20.5147 72.8759C20.1771 73.3456 20.5147 74.0002 21.0944 74.0002H25.3949C24.8153 74.0002 24.4777 73.3456 24.8153 72.8759Z" fill="#E5E1E5"/>
<path d="M55.7696 36.7746C56.306 37.0609 56.306 37.8288 55.7696 38.1166L37.2853 48.0116C37.0612 48.1324 36.7894 48.1324 36.5653 48.0116L18.0809 38.1166C17.5446 37.8288 17.5446 37.0609 18.0809 36.7746L36.5653 26.8782C36.7894 26.7574 37.0612 26.7574 37.2853 26.8782L55.7696 36.7746Z" fill="#EE6161"/>
<path d="M55.8443 23.3191C56.3807 23.6054 56.3807 24.3733 55.8443 24.6611L37.36 34.556C37.136 34.6768 36.8641 34.6768 36.64 34.556L18.1557 24.6611C17.6193 24.3733 17.6193 23.6054 18.1557 23.3191L36.64 13.4226C36.8641 13.3018 37.136 13.3018 37.36 13.4226L55.8443 23.3191Z" fill="#F47C7C"/>
<path d="M55.7696 9.98703C56.306 10.2733 56.306 11.0412 55.7696 11.329L37.2853 21.224C37.0612 21.3448 36.7894 21.3448 36.5653 21.224L18.0809 11.329C17.5446 11.0412 17.5446 10.2733 18.0809 9.98703L36.5653 0.0905845C36.7894 -0.0301948 37.0612 -0.0301948 37.2853 0.0905845L55.7696 9.98703Z" fill="#F9B1B1"/>
</svg>
