<svg width="74" height="61" viewBox="0 0 74 61" fill="none" xmlns="http://www.w3.org/2000/svg">
<path d="M30.0021 51.7902L28.9329 59.8887H45.0669L43.9976 51.7902L36.9999 50.4565L30.0021 51.7902Z" fill="#DAD8DB"/>
<path d="M43.9977 51.7901L43.6456 49.1225L37 47.7888L30.3543 49.1225L30.0022 51.7901H43.9977Z" fill="#C8C5C9"/>
<path d="M50.0246 61H23.9752C23.3571 61 22.8562 60.5024 22.8562 59.8886C22.8562 59.2747 23.3571 58.7771 23.9752 58.7771H50.0246C50.6426 58.7771 51.1435 59.2747 51.1435 59.8886C51.1435 60.5024 50.6426 61 50.0246 61Z" fill="#C8C5C9"/>
<path d="M74 42.3929H0V2.94283C0 1.31772 1.33353 0 2.97813 0H71.0224C72.667 0 74 1.31772 74 2.94283V42.3929Z" fill="#6D80D6"/>
<path d="M74.0007 2.94332V42.3929H69.5616V2.94332C69.5616 1.31709 68.2291 0.000488281 66.5837 0.000488281H71.0223C72.6682 0.000488281 74.0007 1.31709 74.0007 2.94332Z" fill="#5169CE"/>
<path d="M71.0219 49.6286H2.97813C1.33353 49.6286 0 48.3109 0 46.6858V40.085H74V46.6858C74 48.3109 72.6665 49.6286 71.0219 49.6286Z" fill="#ECEAEC"/>
<path d="M74.0007 40.0854V46.6858C74.0007 48.3114 72.6682 49.6286 71.0223 49.6286H66.5837C68.2291 49.6286 69.5616 48.3114 69.5616 46.6858V40.0854H74.0007Z" fill="#DAD8DB"/>
<path d="M13.9745 6.46305C13.3579 6.46305 12.8577 5.96876 12.8577 5.35956V5.34226C12.8577 4.73305 13.3579 4.23877 13.9745 4.23877C14.5911 4.23877 15.0913 4.73305 15.0913 5.34226V5.35956C15.0913 5.96876 14.5911 6.46305 13.9745 6.46305Z" fill="white"/>
<path d="M10.1998 6.46305C9.58327 6.46305 9.08301 5.96876 9.08301 5.35956V5.34226C9.08301 4.73305 9.58327 4.23877 10.1998 4.23877C10.817 4.23877 11.3167 4.73305 11.3167 5.34226V5.35956C11.3167 5.96876 10.817 6.46305 10.1998 6.46305Z" fill="white"/>
<path d="M6.42494 6.46305C5.8078 6.46305 5.30811 5.96876 5.30811 5.35956V5.34226C5.30811 4.73305 5.8078 4.23877 6.42494 4.23877C7.04152 4.23877 7.54178 4.73305 7.54178 5.34226V5.35956C7.54178 5.96876 7.04152 6.46305 6.42494 6.46305Z" fill="white"/>
<path d="M47.4166 17.4411V24.1223C47.4166 24.3136 47.411 24.5061 47.3974 24.6991C47.0626 29.7457 42.4274 35.348 37.0002 35.348C31.5729 35.348 26.9377 29.7457 26.6029 24.6991C26.5894 24.5061 26.5837 24.3136 26.5837 24.1223V17.4411C26.5837 16.5552 27.3098 15.8372 28.2063 15.8372H45.794C46.69 15.8372 47.4166 16.5552 47.4166 17.4411Z" fill="#E2E0E2"/>
<path d="M47.4166 17.4411V24.1223C47.4166 24.3136 47.411 24.5061 47.3974 24.6991C44.5819 25.3624 40.9562 25.7597 37.0002 25.7597C33.0442 25.7597 29.4185 25.3624 26.6029 24.6991C26.5894 24.5061 26.5837 24.3136 26.5837 24.1223V17.4411C26.5837 16.5552 27.3098 15.8372 28.2063 15.8372H45.794C46.69 15.8372 47.4166 16.5552 47.4166 17.4411Z" fill="#B6AEB7"/>
<path d="M37.0001 36.452C36.3836 36.452 35.8833 35.9583 35.8833 35.3485V32.78C35.8833 32.1702 36.3836 31.6765 37.0001 31.6765C37.6167 31.6765 38.117 32.1702 38.117 32.78V35.3485C38.117 35.9583 37.6167 36.452 37.0001 36.452Z" fill="#928392"/>
<path d="M40.1655 30.8118C39.9752 30.8118 39.7844 30.7638 39.6122 30.6668L37.001 29.1934L34.3899 30.6668C33.9986 30.8871 33.5114 30.8542 33.1546 30.5825L31.5314 29.3463C31.0431 28.9742 30.9522 28.2813 31.3287 27.7987C31.7053 27.3161 32.4065 27.2263 32.8954 27.5984L33.9286 28.3856L36.4472 26.9641C36.7905 26.7711 37.2116 26.7711 37.5549 26.9641L40.0735 28.3856L41.1066 27.5984C41.5956 27.2258 42.2968 27.3161 42.6733 27.7987C43.0499 28.2813 42.959 28.9742 42.4707 29.3463L40.8475 30.5825C40.6476 30.7343 40.4071 30.8118 40.1655 30.8118Z" fill="#928392"/>
<path d="M53.2294 18.0876C53.2294 15.5676 45.9633 13.5247 37.0001 13.5247C28.0368 13.5247 20.7708 15.5676 20.7708 18.0876C20.7708 20.6075 28.0368 22.6505 37.0001 22.6505C45.9633 22.6505 53.2294 20.6075 53.2294 18.0876Z" fill="#928392"/>
<path d="M46.6639 15.6481C46.6639 16.5329 46.022 17.2894 45.1395 17.4428C43.4198 17.7424 40.4129 18.1591 37 18.1591C33.5872 18.1591 30.5802 17.7424 28.8605 17.4428C27.9781 17.2894 27.3362 16.5329 27.3362 15.6481V7.38084C27.3362 6.0648 28.589 5.10022 29.8802 5.42156L33.5911 6.34541C35.8285 6.90274 38.1715 6.90274 40.4089 6.34541L44.1199 5.42156C45.4111 5.10022 46.6639 6.0648 46.6639 7.38084V15.6481Z" fill="#A79DA8"/>
<path d="M46.6638 7.38039V15.6477C46.6638 16.5336 46.0219 17.2895 45.1405 17.4429C44.4912 17.5562 43.6572 17.6867 42.6877 17.8044C43.4099 17.55 43.909 16.8705 43.909 16.0889V7.82223C43.909 6.85263 43.2315 6.0755 42.3574 5.86071L44.1202 5.42222C45.4115 5.10032 46.6638 6.06546 46.6638 7.38039Z" fill="#928392"/>
<path d="M46.6645 12.0208V15.6492C46.6645 16.5335 46.0232 17.2894 45.1402 17.4439C44.4909 17.5561 43.6587 17.6855 42.6893 17.8043H42.6877C41.0905 17.999 39.1235 18.1608 37.0001 18.1608C33.5872 18.1608 30.5797 17.743 28.86 17.4439C27.9771 17.2894 27.3357 16.5335 27.3357 15.6492V12.0208C27.3357 12.0208 31.6739 13.0344 37.0001 13.0344C39.7039 13.0344 42.1536 12.7728 43.9088 12.5167C45.6122 12.2668 46.6645 12.0208 46.6645 12.0208Z" fill="#FFC783"/>
<path d="M46.6648 12.0208V15.6492C46.6648 16.5335 46.0233 17.2894 45.1403 17.4439C44.4909 17.5561 43.6587 17.6855 42.6892 17.8043C43.4097 17.5483 43.9088 16.8704 43.9088 16.0888V12.5167C45.6123 12.2668 46.6648 12.0208 46.6648 12.0208Z" fill="#FFAD5C"/>
</svg>
