<svg width="942" height="815" viewBox="0 0 942 815" fill="none" xmlns="http://www.w3.org/2000/svg">
<path d="M937.732 627.597C942.045 650.738 943.634 669.055 939.926 685.563C935.31 705.99 924.263 720.84 903.455 732.75C890.667 740.137 836.944 755.74 777.016 771.193C714.44 787.248 644.372 803.53 607.75 809.787C599.199 811.219 591.027 812.349 582.704 813.103C574.91 813.782 567.722 814.083 560.685 814.008V814.083C455.584 814.083 372.729 807.299 299.257 789.51C224.952 771.57 161.241 742.549 95.2597 698.226L87.9957 693.327L23.3007 547.545C22.09 545.132 21.1064 542.796 20.3497 540.308C19.5174 537.745 18.912 534.73 18.458 531.263L0.600724 391.36C-4.01494 355.103 18.458 325.178 51.146 300.68C74.3 283.343 102.448 268.644 127.948 256.734C141.341 209.095 167.673 141.33 205.733 93.3888C238.194 52.5336 279.205 25.1712 329.145 31.0507L397.623 39.1916C404.433 30.1461 412.757 22.2314 421.534 16.0503C439.391 3.53751 460.956 -2.71891 478.36 1.12539L600.032 28.3371C606.161 29.6939 611.76 31.8798 616.905 34.8196C622.202 37.9101 626.818 41.6791 631.055 46.2018L664.575 82.8358L745.917 103.866C751.592 105.299 756.737 107.409 761.58 110.349C766.271 113.138 770.584 116.681 774.67 121.053L865.621 218.969C869.253 222.814 872.053 226.884 874.172 231.256C876.442 235.93 877.879 240.678 878.636 245.653L882.344 270.076C889.456 273.167 895.51 277.539 900.352 283.117V283.192C905.346 288.921 908.978 295.856 911.021 303.62L937.732 405.682C938.867 409.903 939.396 414.2 939.396 418.572C939.396 422.944 938.791 427.24 937.58 431.612L910.567 530.057C914.956 543.173 919.723 558.022 924.263 573.249C929.635 591.792 934.554 610.712 937.732 627.597Z" fill="white"/>
<path d="M901.33 639.424C906.022 663.32 892.175 690.38 875.604 694.752L645.729 755.507C588.903 770.508 530.564 763.196 482.44 730.783L168.5 519.196C33.3592 399.796 388.916 -52.6261 802.813 372.811C835.728 406.656 889.451 578.82 901.33 639.424Z" fill="#A5B4D0"/>
<path d="M560.755 784.377C354.64 784.377 237.962 758.297 111.825 673.646L50.2328 534.875L318.471 560.88L324.827 564.046L544.411 710.356C556.669 715.029 551.675 714.577 559.923 725.281L560.755 784.377Z" fill="#A5B4D0"/>
<path d="M308.861 363.689C419.41 420.826 484.71 571.734 544.486 687.742C557.274 712.617 575.207 717.818 590.416 716.159C685.983 705.757 779.81 686.686 873.031 661.812C885.137 658.57 890.207 645.304 890.812 633.62C906.778 652.917 910.94 684.35 879.689 693.169C704.673 742.467 593.216 778.121 533.363 762.97C471.846 747.442 351.688 448.415 308.861 363.689Z" fill="white"/>
<path d="M225.476 487.612C225.174 409.671 278.519 326.453 359.028 279.567L354.639 247.682C344.5 254.542 349.191 252.431 334.89 252.431L216.548 302.256C215.488 299.392 216.245 299.694 214.126 301.729L147.767 409.294C156.393 414.872 154.198 411.857 154.198 418.867L168.575 469.069C157.225 473.893 170.845 473.667 175.839 473.818L225.476 487.612Z" fill="white"/>
<path d="M863.648 489.722C863.648 489.722 869.021 501.18 875.074 518.442C885.743 548.819 901.784 597.137 908.519 632.942C915.783 671.837 914.345 692.34 888.618 707.114C866.978 719.552 673.498 768.472 602.826 780.533C562.874 787.392 545.016 784.905 504.837 775.181C463.145 765.08 301.824 692.943 276.702 659.626C251.581 626.308 243.409 534.874 243.409 534.874L344.197 574.9L361.827 556.734C352.142 520.628 338.068 453.315 285.934 401.982C287.069 397.685 299.1 370.85 308.861 363.689C402.082 428.138 463.523 573.016 519.063 686.837C537.601 724.753 551.751 739.979 583.077 737.642C655.414 732.29 853.66 687.742 879.992 674.4C896.336 666.108 893.612 648.771 890.737 633.62C884.078 597.891 856.46 506.984 844.959 485.577C833.306 463.943 844.732 455.35 851.163 467.033L863.648 489.722Z" fill="#002561"/>
<path d="M647.394 503.894C667.899 549.95 681.746 592.614 690.372 638.143C691.583 644.626 697.939 648.922 704.446 647.716L753.932 638.671C756.429 638.218 758.396 636.937 759.758 634.902C761.12 632.866 761.65 630.53 761.12 628.118C751.738 580.328 739.026 536.759 722.757 494.773L647.394 503.894Z" fill="#002561"/>
<path d="M325.659 60.5927L413.583 70.9949C423.041 45.8939 454.216 26.0693 471.998 29.989L593.443 57.276C599.647 58.6329 604.641 61.5726 608.954 66.2461L648.377 109.363L738.42 132.579C744.171 134.087 748.786 136.8 752.797 141.172L843.824 239.089C846.775 242.255 848.515 245.798 849.12 250.094L855.325 291.025L870.004 297.131C876.209 299.693 880.446 304.593 882.187 311.076L908.897 413.138C909.881 416.832 909.805 420.224 908.821 423.842L874.923 547.387L853.433 486.105L841.251 478.34L847.758 575.956C848.742 590.805 834.895 595.705 826.572 584.398L726.843 449.621L717.233 474.421L740.69 593.594C743.338 606.936 727.297 613.117 718.141 600.755L613.797 459.044L590.189 500.125L602.144 630.982C603.885 650.354 586.103 650.43 576.72 637.841L473.36 498.467L411.616 329.242L337.009 280.547C272.843 307.91 219.498 361.428 202.019 412.61L225.627 478.868L344.121 574.825L324.902 676.435L228.2 695.355L126.655 630.53C124.612 629.173 123.023 627.741 121.434 625.856L52.1994 537.814C49.7781 534.724 48.4161 531.482 47.9621 527.638L30.1047 387.585C24.1271 340.699 98.7343 302.332 153.139 277.758C171.904 202.53 232.059 49.4367 325.659 60.5927Z" fill="#002561"/>
<path d="M326.415 567.137L261.569 598.946L287.144 669.953L432.576 703.27C448.541 706.889 452.552 689.476 441.277 678.546L326.415 567.137Z" fill="#002561"/>
<path d="M878.782 395.876L891.796 414.419L869.853 501.859L854.266 462.059L873.107 407.635L878.782 395.876Z" fill="#0079F6"/>
<path d="M858.806 313.488L866.827 316.428L891.797 414.419L873.107 407.635L858.806 313.488Z" fill="#6ECAFF"/>
<path d="M124.688 513.316L55.8317 415.701L70.2083 531.181L131.498 610.705L144.059 569.322L124.84 533.216L225.173 589.071L124.688 513.316Z" fill="#6ECAFF"/>
<path d="M524.208 498.392L522.089 448.265L597.15 447.813L590.416 626.309L524.208 498.392Z" fill="white"/>
<path d="M498.557 493.868L522.09 448.264L590.417 626.308L498.557 493.868Z" fill="#6ECAFF"/>
<path d="M670.396 454.973L660.181 391.58L733.88 397.987L731.383 589.75L670.396 454.973Z" fill="white"/>
<path d="M635.363 441.933L660.181 391.58L731.383 589.75L635.363 441.933Z" fill="#6ECAFF"/>
<path d="M784.804 401.304L849.726 411.405L838.754 573.393L811.514 519.196L784.804 401.304Z" fill="white"/>
<path d="M760.742 450.828L784.804 401.304L838.754 573.393L760.742 450.828Z" fill="#6ECAFF"/>
<path d="M257.256 600.605L256.045 677.038L431.819 690.456L320.664 610.705L257.256 600.605Z" fill="white"/>
<path d="M316.957 585.906L257.256 600.604L431.819 690.456L316.957 585.906Z" fill="#6ECAFF"/>
<path d="M534.725 448.189L564.689 559.297L507.561 456.481L522.694 432.736L534.725 448.189Z" fill="#002561"/>
<path d="M671.986 382.761L706.035 519.196L645.729 402.359L659.955 385.776L671.986 382.761Z" fill="#002561"/>
<path d="M796.759 398.288L819.383 511.658L771.486 416.53L784.804 401.304L796.759 398.288Z" fill="#002561"/>
<path d="M256.954 617.113L359.028 652.993L272.617 589.373L243.334 599.926L256.954 617.113Z" fill="#002561"/>
<path d="M719.201 635.43L737.21 720.984L755.597 712.617L736.756 626.309L719.201 635.43Z" fill="#002561"/>
<path d="M334.587 85.2415L464.81 230.948L529.126 416.077L501.357 245.496L567.641 235.546L443.926 97.1512L334.587 85.2415Z" fill="#6ECAFF"/>
<path d="M485.997 55.4668L618.338 192.957L659.576 359.016L656.928 214.365L709.516 207.581L587.012 75.216L485.997 55.4668Z" fill="#6ECAFF"/>
<path d="M671.531 134.69L737.513 151.424L828.691 247.607L789.949 250.471L786.923 372.886L762.861 234.416L671.531 134.69Z" fill="#6ECAFF"/>
<path d="M567.641 235.546L614.705 416.078H529.126L486.753 230.948L567.641 235.546Z" fill="#0079F6"/>
<path d="M709.516 207.581L741.22 365.951L659.576 359.016L638.768 196.199L709.516 207.581Z" fill="#0079F6"/>
<path d="M828.691 247.607L849.272 383.062L786.923 372.886L777.843 237.431L828.691 247.607Z" fill="#0079F6"/>
<path d="M131.498 610.705L223.66 670.33L225.174 589.072L124.84 533.216L131.498 610.705Z" fill="#0079F6"/>
<path d="M312.493 388.263C322.178 395.575 331.107 403.641 339.43 412.46L331.183 425.199C323.919 414.872 316.049 405.45 307.348 397.61L312.493 388.263ZM349.797 424.219C357.893 433.943 365.46 444.27 372.724 455.199L358.498 474.044C352.823 461.757 346.543 449.621 339.582 438.239L349.797 424.219ZM382.106 469.748C390.278 483.014 398.223 496.884 406.168 511.206L383.393 534.573C378.096 520.779 372.27 505.552 365.687 490.1L382.106 469.748Z" fill="#6ECAFF"/>
</svg>
