<svg width="104" height="100" viewBox="0 0 104 100" fill="none" xmlns="http://www.w3.org/2000/svg">
<path d="M92.5712 70.5421C86.2855 70.5421 81.1426 65.4779 81.1426 59.1298C81.1426 52.8531 86.214 47.7175 92.5712 47.7175C98.8569 47.7175 104 52.7817 104 59.1298C103.928 65.4779 98.8569 70.5421 92.5712 70.5421ZM92.5712 53.709C89.5712 53.709 87.0712 56.1341 87.0712 59.1298C87.0712 62.1255 89.4997 64.622 92.4997 64.622C95.4998 64.622 97.9998 62.1968 97.9998 59.2011C97.9998 56.1341 95.5712 53.709 92.5712 53.709Z" fill="#A44DC4"/>
<path d="M51.4999 100H45.5713V79.5293H51.4999V100Z" fill="#C9DD03"/>
<path d="M60.0712 100H54.1426V79.5293H60.0712V100Z" fill="#C9DD03"/>
<path d="M78.9999 9.98573L84.857 4.20827L80.5713 0L74.7856 5.84879L70.5713 9.98573V10.0571L78.0713 17.5464L72.2856 23.3238L76.4999 27.5321L86.5713 17.475L78.9999 9.98573Z" fill="#FDC82F"/>
<path d="M12.6429 47.7888L0 69.5435H25.2143L12.6429 47.7888ZM12.6429 59.0584L15.4286 63.9086H9.78574L12.6429 59.0584Z" fill="#00C6D7"/>
<path d="M38.9286 6.34817L34.7143 2.13989L27.4286 9.41521L20.2143 2.13989L16 6.34817L23.2857 13.5522L16 20.8275L20.2143 25.0358L27.4286 17.8318L34.7143 25.0358L38.9286 20.8275L31.6429 13.5522L38.9286 6.34817Z" fill="#F9461C"/>
</svg>
