<svg width="208" height="55" viewBox="0 0 208 55" fill="none" xmlns="http://www.w3.org/2000/svg">
<path d="M63.3538 42.4008C63.6452 43.9643 63.7525 45.2018 63.502 46.3171C63.1902 47.6972 62.4438 48.7004 61.038 49.5051C60.1741 50.0041 56.5445 51.0583 52.4957 52.1023C48.268 53.187 43.5342 54.287 41.06 54.7097C40.4823 54.8065 39.9302 54.8829 39.3679 54.9338C38.8413 54.9796 38.3557 55 37.8803 54.9949V55C30.7796 55 25.1818 54.5417 20.218 53.3398C15.1979 52.1278 10.8935 50.1671 6.43581 47.1726L5.94505 46.8416L1.57421 36.9925C1.49242 36.8295 1.42596 36.6716 1.37484 36.5036C1.31861 36.3304 1.27771 36.1267 1.24704 35.8925L0.0405853 26.4406C-0.271252 23.991 1.24704 21.9692 3.45546 20.3141C5.01976 19.1428 6.92145 18.1498 8.64423 17.3451C9.54907 14.1266 11.3281 9.54832 13.8995 6.30941C16.0925 3.5492 18.8633 1.70058 22.2373 2.0978L26.8637 2.64781C27.3238 2.03669 27.8861 1.50197 28.4791 1.08437C29.6856 0.238996 31.1425 -0.183692 32.3183 0.0760324L40.5385 1.91447C40.9526 2.00614 41.3309 2.15382 41.6785 2.35244C42.0364 2.56123 42.3482 2.81586 42.6345 3.12142L44.8991 5.59644L50.3946 7.01728C50.778 7.11404 51.1257 7.25663 51.4528 7.45525C51.7698 7.64367 52.0612 7.88303 52.3372 8.1784L58.482 14.7937C58.7273 15.0534 58.9165 15.3284 59.0596 15.6238C59.213 15.9396 59.3101 16.2604 59.3612 16.5965L59.6117 18.2465C60.0923 18.4553 60.5012 18.7507 60.8284 19.1275V19.1326C61.1658 19.5197 61.4112 19.9882 61.5492 20.5127L63.3538 27.4082C63.4305 27.6933 63.4662 27.9836 63.4662 28.279C63.4662 28.5744 63.4254 28.8646 63.3436 29.16L61.5185 35.811C61.815 36.6971 62.1371 37.7003 62.4438 38.7291C62.8068 39.9818 63.1391 41.2601 63.3538 42.4008Z" fill="white"/>
<path d="M60.8944 43.1999C61.2114 44.8143 60.2759 46.6426 59.1563 46.9379L43.6258 51.0426C39.7866 52.056 35.8452 51.562 32.5939 49.3722L11.3839 35.0772C2.2537 27.0105 26.2754 -3.55544 54.2385 25.1873C56.4622 27.4739 60.0918 39.1055 60.8944 43.1999Z" fill="#A5B4D0"/>
<path d="M37.885 52.9931C23.9597 52.9931 16.0769 51.231 7.55504 45.512L3.3938 36.1365L21.5161 37.8934L21.9456 38.1073L36.7808 47.9921C37.609 48.3078 37.2716 48.2773 37.8288 49.0004L37.885 52.9931Z" fill="#A5B4D0"/>
<path d="M20.8667 24.5711C28.3355 28.4313 32.7472 38.6268 36.7857 46.4643C37.6497 48.1449 38.8612 48.4963 39.8888 48.3842C46.3453 47.6814 52.6843 46.393 58.9824 44.7124C59.8004 44.4935 60.1429 43.5972 60.1838 42.8078C61.2624 44.1115 61.5436 46.2351 59.4323 46.831C47.608 50.1616 40.0779 52.5704 36.0343 51.5467C31.8781 50.4977 23.7601 30.2952 20.8667 24.5711Z" fill="white"/>
<path d="M15.2333 32.9434C15.2128 27.6776 18.8168 22.0554 24.2561 18.8878L23.9596 16.7336C23.2746 17.197 23.5915 17.0544 22.6253 17.0544L14.63 20.4206C14.5585 20.2271 14.6096 20.2475 14.4665 20.385L9.98315 27.6522C10.5659 28.029 10.4177 27.8253 10.4177 28.2989L11.389 31.6906C10.6222 32.0165 11.5423 32.0013 11.8797 32.0114L15.2333 32.9434Z" fill="white"/>
<path d="M58.3486 33.086C58.3486 33.086 58.7116 33.8601 59.1205 35.0263C59.8413 37.0786 60.9251 40.343 61.3801 42.762C61.8708 45.3898 61.7737 46.775 60.0356 47.7731C58.5735 48.6134 45.5019 51.9185 40.7272 52.7333C38.0281 53.1968 36.8216 53.0287 34.1071 52.3718C31.2903 51.6893 20.3914 46.8157 18.6941 44.5648C16.9969 42.3138 16.4448 36.1365 16.4448 36.1365L23.2541 38.8407L24.4452 37.6133C23.7909 35.174 22.84 30.6263 19.3178 27.1582C19.3945 26.8679 20.2073 25.0549 20.8668 24.5711C27.1649 28.9253 31.3159 38.7133 35.0682 46.4032C36.3206 48.9648 37.2766 49.9935 39.393 49.8356C44.2801 49.4741 57.6738 46.4643 59.4528 45.5629C60.557 45.0027 60.373 43.8314 60.1787 42.8078C59.7289 40.3939 57.8629 34.2522 57.0859 32.8059C56.2986 31.3443 57.0706 30.7638 57.5051 31.5531L58.3486 33.086Z" fill="#002561"/>
<path d="M43.7383 34.0434C45.1237 37.155 46.0592 40.0374 46.6419 43.1134C46.7237 43.5513 47.1532 43.8416 47.5928 43.7601L50.9361 43.149C51.1048 43.1185 51.2377 43.0319 51.3297 42.8944C51.4217 42.7569 51.4575 42.599 51.4217 42.4361C50.7878 39.2073 49.929 36.2638 48.8299 33.4272L43.7383 34.0434Z" fill="#002561"/>
<path d="M22.0016 4.09368L27.9419 4.79647C28.5809 3.10062 30.6871 1.76126 31.8884 2.02608L40.0933 3.86961C40.5125 3.96128 40.8499 4.15989 41.1413 4.47563L43.8047 7.38861L49.8881 8.95714C50.2766 9.05899 50.5884 9.24233 50.8594 9.5377L57.0092 16.153C57.2086 16.3669 57.3261 16.6063 57.367 16.8965L57.7862 19.6618L58.778 20.0743C59.1972 20.2475 59.4835 20.5785 59.601 21.0165L61.4056 27.9119C61.472 28.1614 61.4669 28.3906 61.4005 28.635L59.1103 36.9818L57.6584 32.8415L56.8354 32.317L57.275 38.9119C57.3415 39.9152 56.406 40.2462 55.8436 39.4823L49.1059 30.3767L48.4567 32.0522L50.0414 40.1036C50.2203 41.005 49.1366 41.4226 48.518 40.5874L41.4685 31.0133L39.8735 33.7888L40.6812 42.6296C40.7988 43.9384 39.5974 43.9435 38.9635 43.093L31.9804 33.6767L27.809 22.2438L22.7684 18.954C18.4334 20.8026 14.8294 24.4183 13.6485 27.8762L15.2434 32.3526L23.249 38.8356L21.9505 45.7004L15.4173 46.9787L8.55684 42.599C8.41881 42.5073 8.31146 42.4106 8.2041 42.2833L3.52654 36.3351C3.36296 36.1263 3.27094 35.9073 3.24027 35.6476L2.03381 26.1855C1.62996 23.0179 6.67048 20.4257 10.3461 18.7655C11.6139 13.6831 15.678 3.33998 22.0016 4.09368Z" fill="#002561"/>
<path d="M22.0529 38.3161L17.6719 40.4652L19.3998 45.2625L29.2252 47.5134C30.3038 47.7579 30.5748 46.5815 29.8131 45.843L22.0529 38.3161Z" fill="#002561"/>
<path d="M59.3712 26.7457L60.2504 27.9985L58.7679 33.9059L57.7148 31.217L58.9878 27.5401L59.3712 26.7457Z" fill="#0079F6"/>
<path d="M58.0215 21.1794L58.5634 21.3781L60.2504 27.9984L58.9877 27.5401L58.0215 21.1794Z" fill="#6ECAFF"/>
<path d="M8.42397 34.68L3.77197 28.085L4.74327 35.8869L8.88406 41.2597L9.73266 38.4638L8.43419 36.0244L15.2128 39.7981L8.42397 34.68Z" fill="#6ECAFF"/>
<path d="M35.4158 33.6717L35.2727 30.2851L40.3439 30.2545L39.8889 42.3138L35.4158 33.6717Z" fill="white"/>
<path d="M33.6829 33.3661L35.2727 30.285L39.8889 42.3138L33.6829 33.3661Z" fill="#6ECAFF"/>
<path d="M45.2924 30.7383L44.6023 26.4554L49.5815 26.8883L49.4128 39.8439L45.2924 30.7383Z" fill="white"/>
<path d="M42.9255 29.8573L44.6023 26.4554L49.4128 39.8439L42.9255 29.8573Z" fill="#6ECAFF"/>
<path d="M53.022 27.1124L57.4081 27.7948L56.6669 38.7388L54.8265 35.0772L53.022 27.1124Z" fill="white"/>
<path d="M51.3962 30.4582L53.0219 27.1124L56.6668 38.7388L51.3962 30.4582Z" fill="#6ECAFF"/>
<path d="M17.3804 40.5772L17.2986 45.7412L29.174 46.6476L21.6643 41.2597L17.3804 40.5772Z" fill="white"/>
<path d="M21.4138 39.5842L17.3804 40.5772L29.174 46.6477L21.4138 39.5842Z" fill="#6ECAFF"/>
<path d="M36.1265 30.28L38.1509 37.7865L34.2913 30.8401L35.3137 29.236L36.1265 30.28Z" fill="#002561"/>
<path d="M45.3999 25.8596L47.7003 35.0772L43.626 27.1836L44.587 26.0633L45.3999 25.8596Z" fill="#002561"/>
<path d="M53.8295 26.9086L55.358 34.5679L52.1221 28.1411L53.0218 27.1123L53.8295 26.9086Z" fill="#002561"/>
<path d="M17.3599 41.6925L24.2561 44.1166L18.4181 39.8184L16.4397 40.5314L17.3599 41.6925Z" fill="#002561"/>
<path d="M48.5896 42.93L49.8063 48.7102L51.0485 48.1449L49.7756 42.3138L48.5896 42.93Z" fill="#002561"/>
<path d="M22.605 5.75898L31.4029 15.603L35.7482 28.1105L33.872 16.5859L38.3502 15.9137L29.9919 6.56361L22.605 5.75898Z" fill="#6ECAFF"/>
<path d="M32.8342 3.74739L41.7753 13.0363L44.5614 24.2554L44.3824 14.4826L47.9353 14.0243L39.6589 5.08166L32.8342 3.74739Z" fill="#6ECAFF"/>
<path d="M45.3691 9.09974L49.8269 10.2303L55.9869 16.7285L53.3696 16.922L53.1651 25.1924L51.5394 15.8373L45.3691 9.09974Z" fill="#6ECAFF"/>
<path d="M38.3501 15.9137L41.5298 28.1105H35.748L32.8853 15.603L38.3501 15.9137Z" fill="#0079F6"/>
<path d="M47.9353 14.0243L50.0773 24.7239L44.5613 24.2554L43.1555 13.2553L47.9353 14.0243Z" fill="#0079F6"/>
<path d="M55.9868 16.7285L57.3773 25.8799L53.165 25.1924L52.5515 16.041L55.9868 16.7285Z" fill="#0079F6"/>
<path d="M8.88419 41.2597L15.1107 45.2879L15.213 39.7981L8.43433 36.0244L8.88419 41.2597Z" fill="#0079F6"/>
<path d="M21.1123 26.2313C21.7666 26.7253 22.3698 27.2702 22.9322 27.866L22.375 28.7267C21.8842 28.029 21.3525 27.3924 20.7646 26.8628L21.1123 26.2313ZM23.6325 28.6605C24.1795 29.3174 24.6907 30.0151 25.1815 30.7536L24.2204 32.0267C23.837 31.1966 23.4127 30.3767 22.9424 29.6077L23.6325 28.6605ZM25.8154 31.7364C26.3675 32.6327 26.9043 33.5698 27.441 34.5374L25.9023 36.1161C25.5444 35.1841 25.1508 34.1554 24.7061 33.1115L25.8154 31.7364Z" fill="#6ECAFF"/>
<path d="M87.365 38.9934H83.2139V44.8449H73.0767C73.0767 32.2253 73.0767 22.9619 73.0767 12.578H88.234L91.291 15.6234L94.3481 12.578H100.743V22.1369L103.115 19.7739H118.278V23.1605L121.677 19.7739H128.073V22.1369L130.445 19.7739H135.47V16.3058L139.212 12.578H150.627L153.684 15.6234L156.741 12.578H163.136V22.1369L165.508 19.7739H180.671V23.1605L184.07 19.7739H190.466V22.1369L192.838 19.7739H199.233V22.1369L201.605 19.7739H208V41.112L204.258 44.8398C189.729 44.8398 179.521 44.8398 165.513 44.8398L163.141 42.4768V44.8398H153.004V42.4768L150.632 44.8398H139.217L136.845 42.4768V48.9393L133.103 52.6671H117.935V47.2078L120.307 44.8449H103.12L100.748 42.4819V44.8449H90.6111V36.6305L88.2391 38.9934H87.365Z" fill="white"/>
<path d="M87.365 36.9004H81.1129V42.7518H75.1777V36.9004V31.8943V21.872H81.1129V31.8943H83.945V19.6822H77.6929L75.1828 17.1817V14.6813H87.365L89.875 17.1817C89.875 22.9211 89.875 28.6605 89.875 34.405L87.365 36.9004ZM193.707 21.872H197.127V37.7457H199.959V24.3776L202.469 21.8771H205.889V40.2564L203.379 42.7569C197.229 42.7569 191.084 42.7569 184.934 42.7569L182.424 40.2564V24.3776L184.934 21.8771H188.354V37.7508H191.186V24.3776L193.707 21.872ZM178.57 37.7508H180.834V42.7569C176.014 42.7569 171.198 42.7569 166.377 42.7569L163.867 40.2564C163.867 34.517 163.867 30.1221 163.867 24.3827L166.377 21.8822H178.565V24.3827L176.055 26.8832H169.803V37.7508H172.635V29.073H178.57V37.7508ZM161.035 14.6762H157.615L155.105 17.1766V42.7518H161.04L161.035 14.6762ZM140.081 14.6762C143.307 14.6762 146.532 14.6762 149.758 14.6762L152.268 17.1766V24.3776H146.333V19.6822H143.501V37.7508H146.333V33.0503H152.268V40.2513L149.758 42.7518C146.532 42.7518 143.307 42.7518 140.081 42.7518L137.571 40.2513V17.1766L140.081 14.6762ZM134.739 21.872H131.319L128.809 24.3725V37.7457H125.977V21.872H122.557L120.047 24.3725V40.2462L122.557 42.7467H128.814V45.568H122.562L120.052 48.0685V50.569H132.239L134.749 48.0685C134.739 39.3448 134.739 30.611 134.739 21.872ZM116.177 37.7508H118.441V42.7569C113.621 42.7569 108.805 42.7569 103.984 42.7569L101.474 40.2564C101.474 34.517 101.474 30.1221 101.474 24.3827L103.984 21.8822H116.172V24.3827L113.662 26.8832H107.409V37.7508H110.242V29.073H116.177V37.7508ZM98.6422 14.6762H95.2222L92.7122 17.1766V42.7518H98.6473V14.6762H98.6422Z" fill="#002561"/>
<path d="M120.992 44.1624L120.542 43.7194V44.6106L120.992 44.1624Z" fill="white"/>
</svg>
